<svg xmlns="http://www.w3.org/2000/svg" xmlns:xlink="http://www.w3.org/1999/xlink" width="1911.79" height="380.43" viewBox="0 0 1911.79 380.43"><defs><linearGradient id="b52691c8-c950-4611-acfc-75cfa34cdb4c" x1="1595.19" y1="190.86" x2="1897.91" y2="190.86" gradientUnits="userSpaceOnUse"><stop offset="0" stop-color="#fff"/><stop offset="1" stop-color="#a1b7d9"/><stop offset="1" stop-color="gray"/></linearGradient><linearGradient id="e712b508-95de-4a1e-b986-9f1b20a6fd51" x1="1217.5" y1="207.05" x2="1766.72" y2="207.05" xlink:href="#b52691c8-c950-4611-acfc-75cfa34cdb4c"/><linearGradient id="af752a57-b03c-46b0-a261-e193fcd5c303" x1="1344.4" y1="192.57" x2="1690.06" y2="192.57" gradientUnits="userSpaceOnUse"><stop offset="0" stop-color="#e6e6e6"/><stop offset="1" stop-color="#abcea6"/></linearGradient><linearGradient id="f72b8b39-a366-49b6-8b01-a189fe1a87cc" x1="701.54" y1="207.05" x2="1250.76" y2="207.05" xlink:href="#b52691c8-c950-4611-acfc-75cfa34cdb4c"/><linearGradient id="ac60162f-4724-4fef-a871-d9304545121b" x1="828.44" y1="192.57" x2="1174.11" y2="192.57" xlink:href="#af752a57-b03c-46b0-a261-e193fcd5c303"/><linearGradient id="bf19e7b5-0660-4054-8918-e69a2b818e16" x1="527.51" y1="181.46" x2="873.17" y2="181.46" xlink:href="#af752a57-b03c-46b0-a261-e193fcd5c303"/><linearGradient id="a2be40fb-8648-4b3d-b765-d1fb5f53718d" x1="178.88" y1="207.05" x2="728.1" y2="207.05" xlink:href="#b52691c8-c950-4611-acfc-75cfa34cdb4c"/><linearGradient id="bc1845c2-a877-4e2d-b744-4ecc2154f8dd" x1="1733.03" y1="78.48" x2="1733.03" y2="292.43" gradientUnits="userSpaceOnUse"><stop offset="0" stop-color="#e6e6e6"/><stop offset="1" stop-color="gray"/></linearGradient><linearGradient id="ec2bb201-7abf-4c24-9d54-fa79c9b6d9e6" x1="1725.43" y1="91.89" x2="1725.43" y2="260.21" xlink:href="#bc1845c2-a877-4e2d-b744-4ecc2154f8dd"/><linearGradient id="aefe674a-1ccd-4aa1-9e95-d5e052b9fcf0" x1="1478.58" y1="91.47" x2="1478.58" y2="311.81" xlink:href="#bc1845c2-a877-4e2d-b744-4ecc2154f8dd"/><linearGradient id="b23ca6b3-549a-46f7-8f4f-5c0eb7464afe" x1="1503.71" y1="103" x2="1503.71" y2="271.33" xlink:href="#bc1845c2-a877-4e2d-b744-4ecc2154f8dd"/><linearGradient id="b35cd830-938b-4205-bc1a-068868455977" x1="1718.3" y1="85.99" x2="1718.3" y2="162.49" xlink:href="#bc1845c2-a877-4e2d-b744-4ecc2154f8dd"/><linearGradient id="a14407e4-1376-48e6-9b3c-21e9f01d3e53" x1="972.78" y1="198.39" x2="972.78" y2="253.51" xlink:href="#bc1845c2-a877-4e2d-b744-4ecc2154f8dd"/><linearGradient id="b1db5330-3976-4ec6-9275-9b3b5e698910" x1="407.23" y1="198.39" x2="407.23" y2="253.51" xlink:href="#bc1845c2-a877-4e2d-b744-4ecc2154f8dd"/><linearGradient id="fd0ecbe5-3fc9-4b24-b785-d8e62a098658" x1="1217.07" y1="78.48" x2="1217.07" y2="292.43" xlink:href="#bc1845c2-a877-4e2d-b744-4ecc2154f8dd"/><linearGradient id="a9e30fa1-4179-40cf-b4d6-78890747ad50" x1="1209.48" y1="91.89" x2="1209.48" y2="260.21" xlink:href="#bc1845c2-a877-4e2d-b744-4ecc2154f8dd"/><linearGradient id="fcf831ca-de32-4d21-b13f-dbd704196a76" x1="173.54" y1="91.89" x2="173.54" y2="260.21" xlink:href="#bc1845c2-a877-4e2d-b744-4ecc2154f8dd"/><linearGradient id="a4006852-6468-44b8-80c5-a8fbf879b75b" x1="962.62" y1="91.47" x2="962.62" y2="311.81" xlink:href="#bc1845c2-a877-4e2d-b744-4ecc2154f8dd"/><linearGradient id="f838c7aa-87b6-4a63-853d-545e14501abc" x1="987.75" y1="103" x2="987.75" y2="271.33" xlink:href="#bc1845c2-a877-4e2d-b744-4ecc2154f8dd"/><linearGradient id="af68561d-e1d3-4ce9-8e52-d1d5f3cf2c53" x1="694.41" y1="78.48" x2="694.41" y2="292.43" xlink:href="#bc1845c2-a877-4e2d-b744-4ecc2154f8dd"/><linearGradient id="f6832ee3-2b1b-4d11-9430-f5d48609e085" x1="686.82" y1="91.89" x2="686.82" y2="260.21" xlink:href="#bc1845c2-a877-4e2d-b744-4ecc2154f8dd"/><linearGradient id="b014e9ab-04a2-4289-91bf-8b401fb5e640" x1="439.96" y1="91.47" x2="439.96" y2="311.81" xlink:href="#bc1845c2-a877-4e2d-b744-4ecc2154f8dd"/><linearGradient id="f327a109-626f-45cb-83a9-a62bd2dc142e" x1="465.09" y1="103" x2="465.09" y2="271.33" xlink:href="#bc1845c2-a877-4e2d-b744-4ecc2154f8dd"/><linearGradient id="f6d04583-ff25-44c7-9b3d-0c8d19d0f479" x1="1446.97" y1="86.86" x2="1446.97" y2="341.78" xlink:href="#bc1845c2-a877-4e2d-b744-4ecc2154f8dd"/><linearGradient id="f8d7757a-66e1-433c-a568-86a3b1fbd978" x1="1215.47" y1="1061.34" x2="1215.47" y2="754.22" gradientTransform="translate(2683.12 1109.63) rotate(180)" gradientUnits="userSpaceOnUse"><stop offset="0" stop-color="#fff"/><stop offset="1" stop-color="#e7c6cc"/></linearGradient><linearGradient id="a1cc695f-896b-4bf7-8027-3c6c1b6e68ae" x1="1687.52" y1="380.43" x2="1687.52" y2="73.31" gradientTransform="translate(-1170.49 0)" xlink:href="#f8d7757a-66e1-433c-a568-86a3b1fbd978"/><linearGradient id="b9c9c503-ee47-495f-9561-d5e9724feab7" x1="786.91" y1="111.17" x2="786.91" y2="95.38" gradientTransform="matrix(1, 0, 0, 1, 0, 0)" xlink:href="#f8d7757a-66e1-433c-a568-86a3b1fbd978"/><linearGradient id="afe862eb-b024-4ed8-a8ed-9c8832420b3e" x1="1158.77" y1="201.56" x2="1158.77" y2="187.8" gradientTransform="matrix(1, 0, 0, 1, 0, 0)" xlink:href="#f8d7757a-66e1-433c-a568-86a3b1fbd978"/><linearGradient id="b2fc7616-35a9-40cf-9596-5a4c4c79d12c" x1="964.24" y1="342.08" x2="964.24" y2="111.9" gradientTransform="matrix(1, 0, 0, 1, 0, 0)" xlink:href="#f8d7757a-66e1-433c-a568-86a3b1fbd978"/></defs><g style="isolation:isolate"><g id="b074a99f-8d07-4984-869a-dbcf7a7c6484" data-name="Layer 2"><g id="b7266cdf-0d9f-4843-ba89-e6bcbd4e5e6b" data-name="web bakgrunn"><path d="M1601.17,116.89c11.72,5.39,13.19,3,22.43,3.72s7.41,4.08,5.68,5.15c-2.8,1.72-10,4.65-19.47,2.85C1596.36,126.05,1589.45,111.5,1601.17,116.89ZM1889,286.41c-7.58,2.95-12.94,3.18-23.52.42-12.92-3.36-3.18,10.22,11,10.3,10,.06,16.77-4.25,19.28-6.55C1899.14,287.44,1899.68,282.25,1889,286.41Zm-268.1-148.73c-.06.9,1.8,1.75,4.14,1.9s4.3-.46,4.36-1.36-1.8-1.75-4.15-1.9S1620.93,136.77,1620.87,137.68Zm268,116.3c-3.27,1.83-5.36,4.34-4.66,5.6s3.94.79,7.21-1,5.37-4.34,4.67-5.6S1892.1,252.15,1888.82,254Zm1.33,18.27a3.24,3.24,0,1,0,4.56-.46A3.24,3.24,0,0,0,1890.15,272.25Zm-284.4-166.39c-4.73-1.64-10.19-4.58-7.86-7.09s6.44.52,6.44.52c15.65,6.18,40.41-.52,42.52-1s49.88-13.82,79.44-13.68c82.75.4,112.18,69.82,119.59,87,2.48,5.75,8.54,24.19,12.07,41.79S1868,236.05,1868,236.05c7.6-4.26,9.84-3.45,7.82,3.59s2.6,3.44,2.6,3.44c3.29,10.89-8.36,14-8.36,14s-.87,1.33,5.09-.9c5.39-2,6.68,3.63,1.45,5.43s-8.17,10.43-1.68,6.51,11.28-6.4,12.13-4.47-4.22,4-4.22,4c.91,1.05.82,3.26-1.45,4.86s-8.7,6.05-21.33,0c-11.22-5.39-10.25.06-10.25.06a40.12,40.12,0,0,0,35.71,2.45s3.81,12-18.45,7.48-28-12.85-29.81-15.33c-2.33-3.18-6.65-4.18-3.64.47s12.45,9.54,12.45,9.54c-2.25,1.42-6.42-.77-6.42-.77-28-14.53-35.83-63.77-37.27-69.77s-7.61-45.47-36.73-61.35-96.07,3.46-105,5.63-5.38-4.44-5.38-4.44c-12.68-.68-16.25-3.73-18.9-6.57s-2.62-5.58.27-5.57a10.92,10.92,0,0,0,4.93-1.13,6.63,6.63,0,0,1,4.86-1.92c11.07-.9,16-5,16-5-4.89-1.78-9.92-.51-16.35.45s-11.29-1.2-10.65-4.8.45-6.53-6.55-5.72-8.16-.63-7.75-4S1610.47,107.51,1605.75,105.86Zm47.75,30.28c-2.75.39-4.87,1.56-4.72,2.61s2.5,1.61,5.26,1.23,4.87-1.55,4.72-2.61S1656.26,135.76,1653.5,136.14Zm199.72,123.91a16.19,16.19,0,0,0,9.48,6.16c2.55.41,5-1.14-.5-4.38-3.89-2.29-5.83-4.55-8.27-10.11C1851,244.93,1848.38,253.84,1853.22,260.05ZM1873,246.54a2.85,2.85,0,1,0,.41,4A2.85,2.85,0,0,0,1873,246.54Z" style="fill:url(#b52691c8-c950-4611-acfc-75cfa34cdb4c)"/><path d="M1906.4,139.43a3.95,3.95,0,1,1-2.23,5.12A4,4,0,0,1,1906.4,139.43Zm-332.65,34.11a3.95,3.95,0,1,0-2.23,5.12A3.94,3.94,0,0,0,1573.75,173.54Zm183.86,83.27c-108.09,24.53-159.78-14.4-159.78-14.4s13.59,1.21,3.67-6.13c-17.1-12.66-11.79-28,1.9-21.36,7.33,3.57,17.18,6.32,18.88,4.31.93-1.11-.35-4.34-6.39-8.28-17-11.11-5.6-11.85-3.14-17.51S1602.53,183,1602.53,183c6-.5,12-2.85-6.49-12.91S1586,151.53,1586,151.53s70.26,55.82,161.54,32c74.33-19.42,118.16-85.39,118.16-85.39,2.12-.94,6,3.74,1.75,10.75-1.92,3.13-4.33,7.09-2.63,9,3.19,3.58,7-5.17,7-5.17,4.41,8.56-.54,21.64-.54,21.64,3.87-4.82,8.62-7.09,10.16-4,2.14,4.27-4.42,6.58-.83,11.51,4,5.47,11.41-5.58,11.41-5.58,5.17,5.85,2.53,11.59-2.19,15.3s-12.34,8.95-9.32,12.51c3.37,4,8.1-4,8.1-4s10.34-15.74,13.3-9.15c3.33,7.45-7.24,13.54-14.48,17.65-9.49,5.38-5.61,9.83-5.61,9.83,9.86-7.39,8.58-.7,3.28,4.68S1840,238.13,1757.61,256.81ZM1858.81,130c3.08-3.06,4.62-6.5,3.44-7.68s-4.62.34-7.7,3.4-4.62,6.5-3.44,7.68S1855.73,133,1858.81,130Zm-210.6,108.68c-1-1.66-4.4-1-8.4-.44-5.35.69-16.43,1-25.38-10s-9.66,1.48-2.11,8,21.38,9.17,30.53,7C1645.79,242.46,1649.28,240.37,1648.21,238.66Zm-53.78-56.54c-6.24-3.57-12.41-4.51-13.78-2.11s2.58,7.23,8.83,10.79,12.41,4.51,13.78,2.11S1600.67,185.68,1594.43,182.12Z" style="fill:#abcea6"/><path d="M1234.62,248.1c20.09-.44,20.49-4.86,34-10.08s13.18.66,11.47,3.34c-2.75,4.33-10.84,13.33-25.34,17.26C1234.11,264.21,1214.52,248.54,1234.62,248.1Zm518.89,41.32c-8.63,9.31-16,13.27-32.68,16.63-20.4,4.09,2.51,16.49,22.43,6.94,14-6.73,20.6-17.39,22.54-22.33C1768.45,283.93,1765.67,276.29,1753.51,289.42ZM1276.4,263.79c.53,1.31,3.71,1.23,7.1-.15s5.71-3.58,5.17-4.88-3.71-1.23-7.1.16S1275.86,262.49,1276.4,263.79Zm454.78-19.72c-3.34,4.81-4.56,9.75-2.71,11s6-1.57,9.4-6.37,4.56-9.74,2.71-11S1734.53,239.27,1731.18,244.07Zm14.32,24.71a5,5,0,1,0,6.07-3.76A5,5,0,0,0,1745.5,268.78Zm-512-39.26c-7.74.92-17.4.53-15.86-4.58s9.39-3.65,9.39-3.65c26.15-2,56.26-28.29,58.89-30.42s60.48-53.39,102-73.34c116.23-55.86,204.8,21.36,226.87,40.32,7.4,6.35,28.47,28.06,45.41,50.32s29.59,25,29.59,25c7.75-11.15,11.44-11.53,13.41-.29s6,3,6,3c12,13-2.17,25.35-2.17,25.35s-.31,2.46,6.52-4.72c6.18-6.5,11.84.52,5.74,6.61s-4.35,20.19,2.08,10.26,11.45-16.65,14-14.53-3.17,8.53-3.17,8.53c2,.84,3.37,4,1.29,7.79s-8.08,14.41-29.92,14.52c-19.39.1-14.32,7.07-14.32,7.07,33.87,2.14,51.72-20.91,51.72-20.91s13.48,14.17-20.76,23-48,1.08-52.23-1.15c-5.44-2.87-12.17-1.33-4.78,3.14s23.95,4.89,23.95,4.89c-2.18,3.52-9.52,3.3-9.52,3.3-49.12-1.28-93.68-64.94-99.8-72.37s-41.66-58.53-93.29-60.92-132.28,70.34-143.26,79.46-10.57-2.55-10.57-2.55c-18.22,7.69-25.32,5.85-31,3.67s-7.48-6-3.42-8a17.07,17.07,0,0,0,6.13-4.94,10.36,10.36,0,0,1,5.5-6c14.9-8.81,19.09-17.92,19.09-17.92-8.06.85-14.25,6.06-22.61,11.79s-16.63,6-18.18.53-3.83-9.46-13.08-3.55-11.88,4.69-13.61-.34S1241.26,228.61,1233.52,229.52Zm87.56,9.88c-3.6,2.41-5.77,5.49-4.84,6.88s4.6.55,8.2-1.87,5.78-5.5,4.85-6.88S1324.69,237,1321.08,239.4Zm364.35,37.47c7.75,3.8,14.67,3,17.49,2.16,3.84-1.16,6.22-5-3.69-5.8-7-.56-11.28-2.4-18.49-8.53C1672,257.21,1674.41,271.46,1685.43,276.87ZM1704,244.41a4.44,4.44,0,1,0,3.31,5.34A4.44,4.44,0,0,0,1704,244.41Z" style="fill:url(#e712b508-95de-4a1e-b986-9f1b20a6fd51)"/><path d="M1349.79,234.6a3.94,3.94,0,1,1,2.23-5.12A3.95,3.95,0,0,1,1349.79,234.6Zm332.66-34.11a3.94,3.94,0,1,0,2.22-5.11A3.93,3.93,0,0,0,1682.45,200.49Zm-183.86-83.27c108.09-24.52,159.78,14.4,159.78,14.4s-13.6-1.21-3.68,6.13c17.1,12.67,11.79,28-1.9,21.36-7.33-3.57-17.18-6.32-18.88-4.3-.93,1.11.35,4.34,6.39,8.28,17,11.1,5.6,11.85,3.14,17.5s10.23,10.5,10.23,10.5c-6,.5-12,2.85,6.48,12.9s10.1,18.52,10.1,18.52-70.27-55.83-161.55-32c-74.33,19.42-118.16,85.38-118.16,85.38-2.11.95-6-3.74-1.75-10.75,1.92-3.12,4.34-7.08,2.63-9-3.19-3.59-7,5.17-7,5.17-4.4-8.57.55-21.64.55-21.64-3.88,4.82-8.63,7.08-10.17,4-2.14-4.28,4.42-6.59.83-11.51-4-5.47-11.41,5.58-11.41,5.58-5.17-5.85-2.53-11.59,2.19-15.3s12.34-9,9.32-12.51c-3.37-4-8.1,4-8.1,4s-10.34,15.73-13.29,9.15c-3.34-7.45,7.24-13.55,14.48-17.65,9.49-5.39,5.6-9.83,5.6-9.83-9.86,7.38-8.58.7-3.28-4.68S1416.21,135.91,1498.59,117.22ZM1397.38,244.05c-3.08,3.07-4.62,6.5-3.44,7.69s4.62-.34,7.7-3.4,4.62-6.5,3.45-7.68S1400.46,241,1397.38,244.05ZM1608,135.37c1,1.66,4.4,1,8.4.44,5.35-.69,16.43-1,25.38,10s9.66-1.48,2.11-8-21.38-9.17-30.53-7C1610.41,131.57,1606.92,133.67,1608,135.37Zm53.78,56.55c6.24,3.56,12.42,4.5,13.78,2.11s-2.58-7.23-8.82-10.79-12.42-4.51-13.79-2.11S1655.52,188.36,1661.76,191.92Z" style="fill:url(#af752a57-b03c-46b0-a261-e193fcd5c303)"/><path d="M1795.74,106a1.54,1.54,0,1,1-.59,2.1A1.55,1.55,0,0,1,1795.74,106Zm-127.23,31a1.55,1.55,0,1,0-.59,2.11A1.56,1.56,0,0,0,1668.51,137.07Zm75.79,22.47c-40.62,15.3-62.76,3-62.76,3s5.34-.25,1.1-2.57c-7.32-4-6.08-10.24-.41-8.39,3,1,7,1.53,7.55.66.31-.48-.36-1.67-2.92-2.87-7.2-3.4-2.81-4.3-2.16-6.62s-4.52-3.53-4.52-3.53c2.31-.52,4.5-1.75-3.21-4.66s-4.91-6.64-4.91-6.64,30.25,17.9,64.39,3.76c27.8-11.52,41.27-39.46,41.27-39.46.77-.48,2.55,1.13,1.25,4.08-.57,1.31-1.3,3-.53,3.64,1.43,1.22,2.44-2.39,2.44-2.39,2.17,3.09.95,8.43.95,8.43,1.24-2.08,3-3.21,3.73-2.1,1.06,1.54-1.36,2.79.29,4.51,1.84,1.91,4.13-2.77,4.13-2.77,2.32,2,1.6,4.36,0,6s-4.31,4.13-3,5.35c1.53,1.37,2.93-2,2.93-2s3.17-6.66,4.67-4.26c1.69,2.71-2.08,5.64-4.67,7.62-3.4,2.6-1.65,4.12-1.65,4.12,3.43-3.4,3.29-.73,1.52,1.64S1775.26,147.87,1744.3,159.54Zm32.47-54.63c1-1.35,1.45-2.77.93-3.17s-1.78.38-2.81,1.74-1.45,2.76-.93,3.16S1775.74,106.26,1776.77,104.91Zm-75.89,53.44c-.49-.59-1.75-.13-3.28.28a10.5,10.5,0,0,1-10.38-2.52c-4.06-3.79-3.67,1.09-.39,3.2s8.78,2.41,12.22,1.08C1700.15,160,1701.39,159,1700.88,158.35ZM1677,139.29c-2.61-1-5.06-1.08-5.46-.08s1.39,2.67,4,3.72,5.06,1.08,5.46.08S1679.6,140.34,1677,139.29Z" style="fill:#abcea6"/><path d="M920.47,238.45a1.54,1.54,0,1,1,1.25-1.8A1.55,1.55,0,0,1,920.47,238.45Zm130.42,12a1.54,1.54,0,1,0,1.24-1.79A1.55,1.55,0,0,0,1050.89,250.44Zm-64.38-45.87c43.39-1.27,60.32,17.59,60.32,17.59s-5.13-1.49-1.87,2.08c5.62,6.16,2.41,11.66-2.34,8.06-2.55-1.92-6.13-3.72-6.93-3.07-.45.35-.2,1.69,1.83,3.66,5.7,5.55,1.25,5-.12,7s3.14,4.81,3.14,4.81c-2.36-.26-4.83.19,1.52,5.45s2.48,7.87,2.48,7.87-22.79-26.75-59.67-24.48c-30,1.86-51.85,23.9-51.85,23.9-.89.2-2-1.89.14-4.26,1-1.06,2.2-2.4,1.68-3.26-1-1.62-3.08,1.45-3.08,1.45-1-3.62,1.84-8.27,1.84-8.27-1.85,1.56-3.85,2.07-4.21.77-.5-1.81,2.2-2.2,1.19-4.36-1.12-2.41-4.81,1.28-4.81,1.28-1.54-2.64-.09-4.64,2-5.71s5.42-2.51,4.53-4.11c-1-1.78-3.42.93-3.42.93s-5.16,5.27-5.8,2.51c-.72-3.11,3.8-4.65,6.9-5.69,4-1.35,2.89-3.35,2.89-3.35-4.35,2.09-3.35-.38-.91-2.05S953.45,205.53,986.51,204.57Zm-48.46,41.1c-1.41,1-2.27,2.15-1.9,2.7s1.8.22,3.21-.73,2.27-2.15,1.91-2.69S939.46,244.73,938.05,245.67Zm89.14-25.87c.27.72,1.62.7,3.19.8a10.51,10.51,0,0,1,9,5.76c2.61,4.9,3.82.16,1.41-2.9s-7.52-5.14-11.2-5C1028.4,218.52,1026.91,219.06,1027.19,219.8Zm16.4,25.79c2.13,1.84,4.43,2.67,5.13,1.85s-.44-3-2.57-4.81-4.43-2.67-5.14-1.85S1041.46,243.75,1043.59,245.59Z" style="fill:#abcea6"/><path d="M354.93,238.45a1.55,1.55,0,1,1,1.24-1.8A1.55,1.55,0,0,1,354.93,238.45Zm130.41,12a1.54,1.54,0,1,0,3-.55,1.53,1.53,0,0,0-1.79-1.24A1.55,1.55,0,0,0,485.34,250.44ZM421,204.57c43.39-1.27,60.32,17.59,60.32,17.59s-5.13-1.49-1.88,2.08c5.62,6.16,2.42,11.66-2.34,8.06-2.55-1.92-6.13-3.72-6.93-3.07-.44.35-.19,1.69,1.83,3.66,5.7,5.55,1.26,5-.11,7s3.13,4.81,3.13,4.81c-2.35-.26-4.82.19,1.52,5.45S479,258,479,258s-22.79-26.75-59.66-24.48c-30,1.86-51.86,23.9-51.86,23.9-.88.2-2-1.89.14-4.26,1-1.06,2.2-2.4,1.69-3.26-.95-1.62-3.09,1.45-3.09,1.45-1-3.62,1.85-8.27,1.85-8.27-1.86,1.56-3.85,2.07-4.21.77-.5-1.81,2.19-2.2,1.18-4.36-1.12-2.41-4.8,1.28-4.8,1.28-1.55-2.64-.1-4.64,2-5.71s5.41-2.51,4.52-4.11c-1-1.78-3.42.93-3.42.93s-5.16,5.27-5.8,2.51c-.72-3.11,3.81-4.65,6.9-5.69,4.06-1.35,2.9-3.35,2.9-3.35-4.35,2.09-3.35-.38-.91-2.05S387.9,205.53,421,204.57Zm-48.46,41.1c-1.42,1-2.27,2.15-1.91,2.7s1.8.22,3.22-.73,2.26-2.15,1.9-2.69S373.92,244.73,372.51,245.67Zm89.13-25.87c.28.72,1.62.7,3.2.8a10.53,10.53,0,0,1,9,5.76c2.61,4.9,3.82.16,1.41-2.9s-7.53-5.14-11.21-5C462.86,218.52,461.36,219.06,461.64,219.8ZM478,245.59c2.13,1.84,4.43,2.67,5.14,1.85s-.45-3-2.58-4.81-4.43-2.67-5.14-1.85S475.91,243.75,478,245.59Z" style="fill:#abcea6"/><path d="M1085.21,116.89c11.72,5.39,13.19,3,22.43,3.72s7.41,4.08,5.68,5.15c-2.8,1.72-10,4.65-19.47,2.85C1080.4,126.05,1073.49,111.5,1085.21,116.89ZM1373,286.41c-7.59,2.95-13,3.18-23.53.42-12.91-3.36-3.18,10.22,11,10.3,10,.06,16.77-4.25,19.28-6.55C1383.18,287.44,1383.72,282.25,1373,286.41ZM1104.91,137.68c-.06.9,1.8,1.75,4.14,1.9s4.3-.46,4.36-1.36-1.8-1.75-4.15-1.9S1105,136.77,1104.91,137.68ZM1372.86,254c-3.27,1.83-5.36,4.34-4.66,5.6s3.94.79,7.22-1,5.36-4.34,4.66-5.6S1376.14,252.15,1372.86,254Zm1.33,18.27a3.24,3.24,0,1,0,4.56-.46A3.24,3.24,0,0,0,1374.19,272.25Zm-284.4-166.39c-4.72-1.64-10.19-4.58-7.86-7.09s6.44.52,6.44.52c15.66,6.18,40.41-.52,42.52-1s49.89-13.82,79.44-13.68c82.75.4,112.18,69.82,119.59,87,2.49,5.75,8.54,24.19,12.07,41.79s10.07,22.71,10.07,22.71c7.6-4.26,9.84-3.45,7.82,3.59s2.6,3.44,2.6,3.44c3.29,10.89-8.36,14-8.36,14s-.87,1.33,5.09-.9c5.39-2,6.68,3.63,1.45,5.43s-8.17,10.43-1.68,6.51,11.28-6.4,12.13-4.47-4.22,4-4.22,4c.91,1.05.82,3.26-1.44,4.86s-8.71,6.05-21.34,0c-11.22-5.39-10.25.06-10.25.06a40.12,40.12,0,0,0,35.71,2.45s3.81,12-18.45,7.48-28-12.85-29.81-15.33c-2.33-3.18-6.65-4.18-3.64.47s12.45,9.54,12.45,9.54c-2.25,1.42-6.42-.77-6.42-.77-28-14.53-35.82-63.77-37.27-69.77s-7.61-45.47-36.73-61.35-96.07,3.46-105,5.63-5.38-4.44-5.38-4.44c-12.68-.68-16.25-3.73-18.9-6.57s-2.62-5.58.27-5.57a10.92,10.92,0,0,0,4.93-1.13,6.63,6.63,0,0,1,4.86-1.92c11.07-.9,16-5,16-5-4.89-1.78-9.92-.51-16.35.45s-11.29-1.2-10.65-4.8.45-6.53-6.55-5.72-8.16-.63-7.75-4S1094.51,107.51,1089.79,105.86Zm47.76,30.28c-2.76.39-4.88,1.56-4.73,2.61s2.5,1.61,5.26,1.23,4.87-1.55,4.72-2.61S1140.3,135.76,1137.55,136.14Zm199.71,123.91a16.19,16.19,0,0,0,9.48,6.16c2.55.41,5-1.14-.5-4.38-3.89-2.29-5.83-4.55-8.27-10.11C1335,244.93,1332.42,253.84,1337.26,260.05Zm19.82-13.51a2.85,2.85,0,1,0,.41,4A2.85,2.85,0,0,0,1357.08,246.54Z" style="fill:#a1b7d9"/><path d="M1390.44,139.43a3.95,3.95,0,1,1-2.22,5.12A4,4,0,0,1,1390.44,139.43Zm-332.65,34.11a3.95,3.95,0,1,0-2.23,5.12A3.94,3.94,0,0,0,1057.79,173.54Zm183.86,83.27c-108.09,24.53-159.78-14.4-159.78-14.4s13.59,1.21,3.67-6.13c-17.1-12.66-11.79-28,1.9-21.36,7.33,3.57,17.18,6.32,18.88,4.31.93-1.11-.35-4.34-6.39-8.28-17-11.11-5.6-11.85-3.14-17.51S1086.57,183,1086.57,183c6-.5,12-2.85-6.49-12.91S1070,151.53,1070,151.53s70.26,55.82,161.54,32c74.33-19.42,118.16-85.39,118.16-85.39,2.12-.94,6,3.74,1.75,10.75-1.92,3.13-4.33,7.09-2.62,9,3.18,3.58,7-5.17,7-5.17,4.41,8.56-.54,21.64-.54,21.64,3.87-4.82,8.62-7.09,10.16-4,2.14,4.27-4.42,6.58-.83,11.51,4,5.47,11.41-5.58,11.41-5.58,5.18,5.85,2.53,11.59-2.19,15.3s-12.34,8.95-9.32,12.51c3.37,4,8.1-4,8.1-4s10.34-15.74,13.3-9.15c3.33,7.45-7.24,13.54-14.48,17.65-9.49,5.38-5.61,9.83-5.61,9.83,9.87-7.39,8.58-.7,3.28,4.68S1324,238.13,1241.65,256.81ZM1342.85,130c3.08-3.06,4.62-6.5,3.44-7.68s-4.62.34-7.7,3.4-4.62,6.5-3.44,7.68S1339.77,133,1342.85,130Zm-210.6,108.68c-1-1.66-4.4-1-8.4-.44-5.34.69-16.43,1-25.38-10s-9.66,1.48-2.1,8,21.37,9.17,30.52,7C1129.83,242.46,1133.32,240.37,1132.25,238.66Zm-53.78-56.54c-6.24-3.57-12.41-4.51-13.78-2.11s2.58,7.23,8.83,10.79,12.41,4.51,13.78,2.11S1084.71,185.68,1078.47,182.12Z" style="fill:#abcea6"/><path d="M354.5,139.43a3.95,3.95,0,1,1-2.22,5.12A4,4,0,0,1,354.5,139.43ZM21.85,173.54a3.95,3.95,0,1,0-2.23,5.12A3.94,3.94,0,0,0,21.85,173.54Zm183.86,83.27c-108.09,24.53-159.78-14.4-159.78-14.4s13.59,1.21,3.67-6.13c-17.1-12.66-11.79-28,1.9-21.36,7.33,3.57,17.19,6.32,18.88,4.31.93-1.11-.35-4.34-6.39-8.28-17-11.11-5.6-11.85-3.14-17.51S50.63,183,50.63,183c6-.5,12-2.85-6.49-12.91s-10.09-18.51-10.09-18.51,70.26,55.82,161.54,32c74.33-19.42,118.16-85.39,118.16-85.39,2.12-.94,6.05,3.74,1.75,10.75-1.91,3.13-4.33,7.09-2.62,9,3.18,3.58,7-5.17,7-5.17,4.41,8.56-.54,21.64-.54,21.64,3.87-4.82,8.62-7.09,10.16-4,2.14,4.27-4.42,6.58-.83,11.51,4,5.47,11.41-5.58,11.41-5.58,5.18,5.85,2.53,11.59-2.19,15.3s-12.34,8.95-9.32,12.51c3.38,4,8.1-4,8.1-4S347,144.34,350,150.93c3.33,7.45-7.24,13.54-14.48,17.65-9.49,5.38-5.61,9.83-5.61,9.83,9.87-7.39,8.58-.7,3.28,4.68S288.08,238.13,205.71,256.81ZM306.91,130c3.08-3.06,4.62-6.5,3.45-7.68s-4.63.34-7.71,3.4-4.62,6.5-3.44,7.68S303.83,133,306.91,130ZM96.31,238.66c-1-1.66-4.4-1-8.4-.44-5.34.69-16.43,1-25.38-10s-9.66,1.48-2.1,8,21.37,9.17,30.52,7C93.89,242.46,97.38,240.37,96.31,238.66ZM42.53,182.12c-6.24-3.57-12.41-4.51-13.78-2.11s2.58,7.23,8.83,10.79,12.41,4.51,13.78,2.11S48.77,185.68,42.53,182.12Z" style="fill:#abcea6"/><path d="M718.66,248.1c20.09-.44,20.49-4.86,34-10.08s13.18.66,11.47,3.34c-2.75,4.33-10.84,13.33-25.33,17.26C718.15,264.21,698.56,248.54,718.66,248.1Zm518.89,41.32c-8.63,9.31-16,13.27-32.68,16.63-20.4,4.09,2.51,16.49,22.43,6.94,14-6.73,20.6-17.39,22.54-22.33C1252.49,283.93,1249.71,276.29,1237.55,289.42ZM760.44,263.79c.53,1.31,3.71,1.23,7.1-.15s5.71-3.58,5.17-4.88-3.71-1.23-7.1.16S759.9,262.49,760.44,263.79Zm454.78-19.72c-3.34,4.81-4.56,9.75-2.71,11s6-1.57,9.4-6.37,4.56-9.74,2.71-11S1218.57,239.27,1215.22,244.07Zm14.32,24.71a5,5,0,1,0,6.07-3.76A5,5,0,0,0,1229.54,268.78Zm-512-39.26c-7.74.92-17.4.53-15.86-4.58s9.39-3.65,9.39-3.65c26.15-2,56.27-28.29,58.89-30.42s60.48-53.39,102-73.34c116.23-55.86,204.8,21.36,226.87,40.32,7.4,6.35,28.47,28.06,45.41,50.32s29.59,25,29.59,25c7.75-11.15,11.44-11.53,13.41-.29s6,3,6,3c12,13-2.17,25.35-2.17,25.35s-.31,2.46,6.52-4.72c6.18-6.5,11.84.52,5.74,6.61s-4.35,20.19,2.08,10.26,11.45-16.65,14-14.53-3.17,8.53-3.17,8.53c2,.84,3.37,4,1.29,7.79s-8.08,14.41-29.92,14.52c-19.39.1-14.32,7.07-14.32,7.07,33.87,2.14,51.72-20.91,51.72-20.91s13.48,14.17-20.76,23-48,1.08-52.23-1.15c-5.43-2.87-12.17-1.33-4.78,3.14s24,4.89,24,4.89c-2.18,3.52-9.52,3.3-9.52,3.3-49.12-1.28-93.68-64.94-99.8-72.37s-41.66-58.53-93.29-60.92-132.28,70.34-143.26,79.46-10.57-2.55-10.57-2.55c-18.22,7.69-25.32,5.85-31,3.67s-7.47-6-3.42-8a17.07,17.07,0,0,0,6.13-4.94,10.36,10.36,0,0,1,5.5-6c14.9-8.81,19.09-17.92,19.09-17.92-8.06.85-14.25,6.06-22.61,11.79s-16.63,6-18.18.53-3.83-9.46-13.08-3.55-11.88,4.69-13.61-.34S725.3,228.61,717.56,229.52Zm87.56,9.88c-3.6,2.41-5.77,5.49-4.84,6.88s4.6.55,8.21-1.87,5.77-5.5,4.84-6.88S808.73,237,805.12,239.4Zm364.35,37.47c7.75,3.8,14.67,3,17.49,2.16,3.84-1.16,6.22-5-3.69-5.8-7-.56-11.28-2.4-18.49-8.53C1156,257.21,1158.45,271.46,1169.47,276.87ZM1188,244.41a4.44,4.44,0,1,0,3.31,5.34A4.44,4.44,0,0,0,1188,244.41Z" style="fill:url(#f72b8b39-a366-49b6-8b01-a189fe1a87cc)"/><path d="M833.83,234.6a3.94,3.94,0,1,1,2.23-5.12A3.95,3.95,0,0,1,833.83,234.6Zm332.66-34.11a3.94,3.94,0,1,0,2.22-5.11A3.94,3.94,0,0,0,1166.49,200.49ZM982.63,117.22c108.09-24.52,159.78,14.4,159.78,14.4s-13.6-1.21-3.68,6.13c17.11,12.67,11.79,28-1.9,21.36-7.33-3.57-17.18-6.32-18.88-4.3-.93,1.11.35,4.34,6.39,8.28,17,11.1,5.6,11.85,3.14,17.5s10.23,10.5,10.23,10.5c-6,.5-12,2.85,6.48,12.9s10.1,18.52,10.1,18.52-70.27-55.83-161.55-32C918.41,210,874.58,275.91,874.58,275.91c-2.11.95-6.05-3.74-1.75-10.75,1.92-3.12,4.34-7.08,2.63-9-3.19-3.59-7,5.17-7,5.17-4.4-8.57.55-21.64.55-21.64-3.87,4.82-8.63,7.08-10.17,4-2.14-4.28,4.42-6.59.83-11.51-4-5.47-11.41,5.58-11.41,5.58-5.17-5.85-2.53-11.59,2.19-15.3s12.34-9,9.32-12.51c-3.37-4-8.1,4-8.1,4s-10.34,15.73-13.29,9.15c-3.34-7.45,7.24-13.55,14.48-17.65,9.49-5.39,5.6-9.83,5.6-9.83-9.86,7.38-8.58.7-3.28-4.68S900.25,135.91,982.63,117.22ZM881.42,244.05c-3.07,3.07-4.62,6.5-3.44,7.69s4.62-.34,7.7-3.4,4.62-6.5,3.45-7.68S884.5,241,881.42,244.05ZM1092,135.37c1,1.66,4.4,1,8.4.44,5.35-.69,16.43-1,25.38,10s9.66-1.48,2.11-8-21.38-9.17-30.53-7C1094.45,131.57,1091,133.67,1092,135.37Zm53.78,56.55c6.25,3.56,12.42,4.5,13.78,2.11s-2.58-7.23-8.82-10.79-12.42-4.51-13.79-2.11S1139.56,188.36,1145.8,191.92Z" style="fill:url(#ac60162f-4724-4fef-a871-d9304545121b)"/><path d="M562.55,116.89c11.72,5.39,13.19,3,22.43,3.72s7.41,4.08,5.68,5.15c-2.8,1.72-10,4.65-19.47,2.85C557.74,126.05,550.83,111.5,562.55,116.89ZM850.36,286.41c-7.59,2.95-13,3.18-23.53.42-12.92-3.36-3.18,10.22,11,10.3,10,.06,16.77-4.25,19.28-6.55C860.52,287.44,861.06,282.25,850.36,286.41ZM582.25,137.68c-.06.9,1.8,1.75,4.14,1.9s4.3-.46,4.36-1.36-1.8-1.75-4.15-1.9S582.31,136.77,582.25,137.68ZM850.2,254c-3.27,1.83-5.36,4.34-4.66,5.6s3.94.79,7.22-1,5.36-4.34,4.66-5.6S853.48,252.15,850.2,254Zm1.33,18.27a3.24,3.24,0,1,0,4.56-.46A3.24,3.24,0,0,0,851.53,272.25ZM567.13,105.86c-4.72-1.64-10.19-4.58-7.86-7.09s6.44.52,6.44.52c15.65,6.18,40.41-.52,42.52-1s49.89-13.82,79.44-13.68c82.75.4,112.18,69.82,119.59,87,2.49,5.75,8.54,24.19,12.07,41.79s10.07,22.71,10.07,22.71c7.6-4.26,9.84-3.45,7.82,3.59s2.6,3.44,2.6,3.44c3.29,10.89-8.36,14-8.36,14s-.87,1.33,5.09-.9c5.39-2,6.68,3.63,1.45,5.43s-8.17,10.43-1.68,6.51,11.28-6.4,12.13-4.47-4.22,4-4.22,4c.91,1.05.82,3.26-1.44,4.86s-8.71,6.05-21.34,0c-11.22-5.39-10.25.06-10.25.06a40.12,40.12,0,0,0,35.71,2.45s3.81,12-18.45,7.48-28-12.85-29.81-15.33c-2.33-3.18-6.65-4.18-3.64.47s12.45,9.54,12.45,9.54c-2.25,1.42-6.42-.77-6.42-.77-28-14.53-35.82-63.77-37.27-69.77S756.16,161.2,727,145.32s-96.07,3.46-105,5.63-5.38-4.44-5.38-4.44c-12.68-.68-16.25-3.73-18.9-6.57s-2.62-5.58.27-5.57a10.92,10.92,0,0,0,4.93-1.13,6.63,6.63,0,0,1,4.86-1.92c11.07-.9,16-5,16-5-4.89-1.78-9.92-.51-16.35.45s-11.29-1.2-10.65-4.8.45-6.53-6.55-5.72-8.16-.63-7.75-4S571.85,107.51,567.13,105.86Zm47.76,30.28c-2.76.39-4.88,1.56-4.73,2.61s2.5,1.61,5.26,1.23,4.87-1.55,4.72-2.61S617.64,135.76,614.89,136.14ZM814.6,260.05a16.19,16.19,0,0,0,9.48,6.16c2.55.41,5-1.14-.5-4.38-3.89-2.29-5.83-4.55-8.27-10.11C812.34,244.93,809.76,253.84,814.6,260.05Zm19.82-13.51a2.85,2.85,0,1,0,.41,4A2.85,2.85,0,0,0,834.42,246.54Z" style="fill:#a1b7d9"/><path d="M867.78,139.43a3.95,3.95,0,1,1-2.23,5.12A4,4,0,0,1,867.78,139.43ZM535.13,173.54a3.95,3.95,0,1,0-2.23,5.12A3.94,3.94,0,0,0,535.13,173.54ZM719,256.81c-108.09,24.53-159.78-14.4-159.78-14.4s13.59,1.21,3.67-6.13c-17.1-12.66-11.79-28,1.9-21.36,7.33,3.57,17.18,6.32,18.88,4.31.93-1.11-.35-4.34-6.39-8.28-17-11.11-5.6-11.85-3.14-17.51S563.91,183,563.91,183c6-.5,12-2.85-6.49-12.91s-10.09-18.51-10.09-18.51,70.26,55.82,161.54,32C783.2,164.09,827,98.12,827,98.12c2.12-.94,6.05,3.74,1.75,10.75-1.92,3.13-4.33,7.09-2.63,9,3.19,3.58,7-5.17,7-5.17,4.41,8.56-.54,21.64-.54,21.64,3.87-4.82,8.62-7.09,10.16-4,2.14,4.27-4.42,6.58-.83,11.51,4,5.47,11.41-5.58,11.41-5.58,5.18,5.85,2.53,11.59-2.19,15.3s-12.34,8.95-9.32,12.51c3.37,4,8.1-4,8.1-4s10.34-15.74,13.3-9.15c3.33,7.45-7.24,13.54-14.48,17.65-9.49,5.38-5.61,9.83-5.61,9.83,9.87-7.39,8.58-.7,3.28,4.68S801.36,238.13,719,256.81ZM820.19,130c3.08-3.06,4.62-6.5,3.44-7.68s-4.62.34-7.7,3.4-4.62,6.5-3.44,7.68S817.11,133,820.19,130ZM609.59,238.66c-1-1.66-4.4-1-8.4-.44-5.34.69-16.43,1-25.38-10s-9.66,1.48-2.11,8,21.38,9.17,30.53,7C607.17,242.46,610.66,240.37,609.59,238.66Zm-53.78-56.54c-6.24-3.57-12.41-4.51-13.78-2.11s2.58,7.23,8.83,10.79,12.41,4.51,13.78,2.11S562.05,185.68,555.81,182.12Z" style="fill:url(#bf19e7b5-0660-4054-8918-e69a2b818e16)"/><path d="M196,248.1c20.09-.44,20.49-4.86,34-10.08s13.18.66,11.47,3.34c-2.75,4.33-10.84,13.33-25.34,17.26C195.49,264.21,175.9,248.54,196,248.1Zm518.89,41.32c-8.63,9.31-16,13.27-32.68,16.63-20.4,4.09,2.51,16.49,22.43,6.94,14-6.73,20.6-17.39,22.54-22.33C729.83,283.93,727.05,276.29,714.89,289.42ZM237.78,263.79c.53,1.31,3.71,1.23,7.1-.15s5.71-3.58,5.17-4.88-3.71-1.23-7.1.16S237.24,262.49,237.78,263.79Zm454.78-19.72c-3.34,4.81-4.56,9.75-2.71,11s6-1.57,9.4-6.37,4.56-9.74,2.71-11S695.91,239.27,692.56,244.07Zm14.32,24.71A5,5,0,1,0,713,265,5,5,0,0,0,706.88,268.78Zm-512-39.26c-7.74.92-17.4.53-15.86-4.58s9.39-3.65,9.39-3.65c26.15-2,56.26-28.29,58.89-30.42s60.48-53.39,102-73.34c116.23-55.86,204.8,21.36,226.87,40.32,7.4,6.35,28.47,28.06,45.41,50.32s29.59,25,29.59,25c7.75-11.15,11.44-11.53,13.41-.29s6,3,6,3c12,13-2.17,25.35-2.17,25.35s-.31,2.46,6.52-4.72c6.18-6.5,11.84.52,5.74,6.61s-4.35,20.19,2.08,10.26,11.45-16.65,14-14.53-3.17,8.53-3.17,8.53c2,.84,3.37,4,1.29,7.79s-8.08,14.41-29.92,14.52c-19.39.1-14.32,7.07-14.32,7.07,33.87,2.14,51.72-20.91,51.72-20.91s13.48,14.17-20.76,23-48,1.08-52.23-1.15c-5.43-2.87-12.17-1.33-4.78,3.14s24,4.89,24,4.89c-2.18,3.52-9.52,3.3-9.52,3.3-49.12-1.28-93.68-64.94-99.8-72.37s-41.66-58.53-93.29-60.92-132.28,70.34-143.26,79.46-10.57-2.55-10.57-2.55c-18.22,7.69-25.32,5.85-31,3.67s-7.47-6-3.42-8a17.07,17.07,0,0,0,6.13-4.94,10.36,10.36,0,0,1,5.5-6c14.9-8.81,19.09-17.92,19.09-17.92-8.06.85-14.25,6.06-22.61,11.79s-16.63,6-18.18.53-3.83-9.46-13.08-3.55-11.88,4.69-13.61-.34S202.64,228.61,194.9,229.52Zm87.56,9.88c-3.6,2.41-5.77,5.49-4.84,6.88s4.6.55,8.2-1.87,5.78-5.5,4.85-6.88S286.07,237,282.46,239.4Zm364.35,37.47c7.75,3.8,14.67,3,17.49,2.16,3.84-1.16,6.22-5-3.69-5.8-7-.56-11.28-2.4-18.49-8.53C633.33,257.21,635.79,271.46,646.81,276.87Zm18.56-32.46a4.44,4.44,0,1,0,3.31,5.34A4.44,4.44,0,0,0,665.37,244.41Z" style="fill:url(#a2be40fb-8648-4b3d-b765-d1fb5f53718d)"/><path d="M311.17,234.6a3.94,3.94,0,1,1,2.23-5.12A3.95,3.95,0,0,1,311.17,234.6Zm332.66-34.11a3.94,3.94,0,1,0,2.22-5.11A3.94,3.94,0,0,0,643.83,200.49ZM460,117.22c108.09-24.52,159.78,14.4,159.78,14.4s-13.6-1.21-3.68,6.13c17.11,12.67,11.79,28-1.9,21.36-7.33-3.57-17.18-6.32-18.88-4.3-.93,1.11.35,4.34,6.39,8.28,17,11.1,5.6,11.85,3.14,17.5s10.23,10.5,10.23,10.5c-6,.5-12,2.85,6.48,12.9s10.1,18.52,10.1,18.52-70.27-55.83-161.55-32C395.75,210,351.92,275.91,351.92,275.91c-2.11.95-6.05-3.74-1.75-10.75,1.92-3.12,4.34-7.08,2.63-9-3.19-3.59-7,5.17-7,5.17-4.4-8.57.55-21.64.55-21.64-3.87,4.82-8.63,7.08-10.17,4-2.14-4.28,4.42-6.59.83-11.51-4-5.47-11.41,5.58-11.41,5.58-5.17-5.85-2.53-11.59,2.19-15.3s12.34-9,9.32-12.51c-3.37-4-8.1,4-8.1,4s-10.34,15.73-13.29,9.15c-3.34-7.45,7.24-13.55,14.48-17.65,9.49-5.39,5.6-9.83,5.6-9.83-9.86,7.38-8.58.7-3.28-4.68S377.59,135.91,460,117.22ZM358.76,244.05c-3.07,3.07-4.62,6.5-3.44,7.69s4.62-.34,7.7-3.4,4.62-6.5,3.45-7.68S361.84,241,358.76,244.05Zm210.6-108.68c1,1.66,4.4,1,8.4.44,5.35-.69,16.43-1,25.38,10s9.66-1.48,2.11-8-21.38-9.17-30.53-7C571.79,131.57,568.3,133.67,569.36,135.37Zm53.78,56.55c6.25,3.56,12.42,4.5,13.78,2.11s-2.58-7.23-8.82-10.79-12.42-4.51-13.79-2.11S616.9,188.36,623.14,191.92Z" style="fill:#abcea6"/><path d="M1587.64,111.48c11.72,5.39,13.19,3,22.43,3.72s7.42,4.08,5.68,5.15c-2.8,1.72-10,4.65-19.47,2.85C1582.83,120.64,1575.93,106.09,1587.64,111.48ZM1875.45,281c-7.59,2.95-13,3.18-23.52.42-12.92-3.37-3.19,10.22,11,10.3,10,.06,16.77-4.25,19.28-6.55C1885.61,282,1886.15,276.84,1875.45,281ZM1607.34,132.26c0,.91,1.8,1.76,4.15,1.91s4.29-.46,4.35-1.36-1.8-1.76-4.14-1.91S1607.4,131.36,1607.34,132.26Zm268,116.31c-3.28,1.83-5.37,4.34-4.66,5.6s3.93.79,7.21-1,5.36-4.34,4.66-5.6S1878.58,246.74,1875.3,248.57Zm1.33,18.27a3.24,3.24,0,1,0,4.55-.46A3.24,3.24,0,0,0,1876.63,266.84ZM1592.22,100.45c-4.72-1.64-10.18-4.58-7.86-7.09s6.44.52,6.44.52c15.66,6.18,40.41-.52,42.53-1s49.88-13.82,79.43-13.68c82.75.4,112.18,69.82,119.59,87,2.49,5.75,8.55,24.19,12.08,41.79s10.06,22.71,10.06,22.71c7.6-4.26,9.84-3.45,7.83,3.59s2.6,3.44,2.6,3.44c3.28,10.89-8.37,14-8.37,14s-.87,1.33,5.09-.9c5.39-2,6.69,3.63,1.45,5.43s-8.17,10.43-1.67,6.51,11.28-6.4,12.13-4.47-4.22,4-4.22,4c.91,1,.82,3.26-1.45,4.86s-8.71,6.05-21.34,0c-11.21-5.39-10.25.06-10.25.06a40.14,40.14,0,0,0,35.72,2.45s3.8,12-18.45,7.48-28-12.85-29.81-15.33c-2.34-3.18-6.66-4.18-3.65.46s12.45,9.55,12.45,9.55c-2.25,1.42-6.42-.77-6.42-.77-28-14.53-35.82-63.77-37.27-69.77s-7.6-45.47-36.72-61.35-96.08,3.46-105,5.63-5.39-4.44-5.39-4.44c-12.67-.68-16.25-3.73-18.89-6.57s-2.62-5.58.26-5.57a10.92,10.92,0,0,0,4.93-1.13,6.63,6.63,0,0,1,4.86-1.92c11.07-.9,16-5,16-5-4.89-1.78-9.93-.51-16.36.45s-11.28-1.2-10.64-4.8.45-6.53-6.55-5.72-8.17-.63-7.76-4S1597,102.1,1592.22,100.45ZM1640,130.73c-2.76.39-4.87,1.56-4.73,2.61s2.5,1.61,5.26,1.23,4.88-1.55,4.73-2.61S1642.74,130.35,1640,130.73Zm199.71,123.91a16.21,16.21,0,0,0,9.49,6.16c2.54.41,5-1.14-.5-4.38-3.9-2.29-5.84-4.55-8.28-10.11C1837.43,239.52,1834.85,248.43,1839.69,254.64Zm19.82-13.51a2.85,2.85,0,1,0,.41,4A2.85,2.85,0,0,0,1859.51,241.13Z" style="fill:none;stroke-miterlimit:10;stroke-width:1.4056440810857px;stroke:url(#bc1845c2-a877-4e2d-b744-4ecc2154f8dd)"/><path d="M1892.88,134a3.95,3.95,0,1,1-2.23,5.12A3.95,3.95,0,0,1,1892.88,134Zm-332.66,34.11a3.94,3.94,0,1,0-2.23,5.12A3.94,3.94,0,0,0,1560.22,168.13Zm183.86,83.27C1636,275.93,1584.3,237,1584.3,237s13.59,1.21,3.68-6.13c-17.11-12.66-11.79-28,1.9-21.36,7.33,3.57,17.18,6.32,18.87,4.31.94-1.11-.35-4.34-6.39-8.29-17-11.1-5.6-11.84-3.14-17.5S1589,177.54,1589,177.54c6-.5,12-2.85-6.48-12.91s-10.1-18.51-10.1-18.51,70.26,55.82,161.54,32c74.34-19.42,118.17-85.39,118.17-85.39,2.11-.94,6,3.74,1.74,10.75-1.91,3.12-4.33,7.09-2.62,9,3.19,3.58,7-5.17,7-5.17,4.4,8.56-.55,21.64-.55,21.64,3.87-4.82,8.62-7.09,10.17-4,2.14,4.27-4.42,6.58-.83,11.5,4,5.48,11.4-5.57,11.4-5.57,5.18,5.85,2.53,11.59-2.19,15.3s-12.33,9-9.32,12.51c3.38,4,8.11-4,8.11-4s10.34-15.74,13.29-9.15c3.34,7.45-7.24,13.54-14.48,17.65-9.49,5.38-5.61,9.83-5.61,9.83,9.87-7.39,8.59-.7,3.29,4.68S1826.46,232.72,1744.08,251.4Zm101.2-126.83c3.08-3.06,4.62-6.5,3.45-7.68s-4.63.34-7.7,3.4-4.63,6.5-3.45,7.68S1842.2,127.63,1845.28,124.57Zm-210.6,108.68c-1-1.66-4.4-1-8.39-.44-5.35.69-16.43,1-25.39-10s-9.65,1.48-2.1,8,21.38,9.17,30.53,7C1632.26,237.05,1635.75,235,1634.68,233.25Zm-53.78-56.54c-6.24-3.57-12.41-4.51-13.78-2.11s2.59,7.23,8.83,10.79,12.41,4.51,13.78,2.11S1587.15,180.27,1580.9,176.71Z" style="fill:none;stroke-miterlimit:10;stroke-width:1.4056440810857px;stroke:url(#ec2bb201-7abf-4c24-9d54-fa79c9b6d9e6)"/><path d="M1221.09,242.69c20.1-.44,20.49-4.86,34-10.08s13.17.66,11.47,3.34c-2.75,4.33-10.84,13.33-25.34,17.26C1220.59,258.8,1201,243.13,1221.09,242.69ZM1740,284c-8.62,9.31-16,13.27-32.68,16.63-20.39,4.09,2.51,16.49,22.43,6.94,14-6.73,20.6-17.39,22.55-22.33C1754.93,278.52,1752.14,270.88,1740,284Zm-477.11-25.63c.53,1.31,3.71,1.23,7.1-.16s5.71-3.57,5.18-4.87-3.72-1.23-7.11.16S1262.34,257.08,1262.87,258.38Zm454.79-19.72c-3.35,4.81-4.56,9.75-2.72,11s6.06-1.57,9.4-6.37,4.56-9.74,2.71-11S1721,233.86,1717.66,238.66Zm14.31,24.7a5,5,0,1,0,6.07-3.75A5.06,5.06,0,0,0,1732,263.36Zm-512-39.25c-7.74.92-17.4.53-15.85-4.58s9.38-3.65,9.38-3.65c26.15-2,56.27-28.29,58.89-30.42s60.48-53.39,102-73.34c116.24-55.86,204.8,21.36,226.88,40.32,7.4,6.35,28.46,28.06,45.4,50.32s29.6,25,29.6,25c7.74-11.15,11.43-11.53,13.41-.29s6,3,6,3c12,13-2.17,25.35-2.17,25.35s-.3,2.46,6.52-4.72c6.19-6.5,11.85.52,5.74,6.61s-4.34,20.19,2.09,10.26,11.44-16.65,14-14.53-3.16,8.53-3.16,8.53c2,.84,3.37,4,1.28,7.79s-8.07,14.41-29.92,14.52c-19.39.09-14.32,7.07-14.32,7.07,33.87,2.14,51.72-20.91,51.72-20.91s13.49,14.17-20.75,23.05-48,1.08-52.23-1.15c-5.44-2.87-12.18-1.33-4.79,3.14s23.95,4.88,23.95,4.88c-2.17,3.53-9.51,3.31-9.51,3.31-49.13-1.28-93.68-64.94-99.81-72.37s-41.65-58.53-93.28-60.92-132.28,70.34-143.26,79.46-10.57-2.55-10.57-2.55c-18.23,7.69-25.32,5.85-31,3.67s-7.47-6-3.42-8a17.17,17.17,0,0,0,6.14-4.94,10.33,10.33,0,0,1,5.5-6c14.89-8.81,19.09-17.92,19.09-17.92-8.07.85-14.25,6.06-22.61,11.79s-16.64,6-18.19.53-3.83-9.46-13.08-3.55-11.88,4.69-13.61-.34S1227.73,223.19,1220,224.11Zm87.57,9.88c-3.61,2.41-5.77,5.49-4.85,6.88s4.61.54,8.21-1.87,5.77-5.5,4.84-6.88S1311.16,231.57,1307.56,234Zm364.34,37.47c7.75,3.8,14.67,3,17.49,2.15,3.85-1.15,6.23-5-3.68-5.79-7-.56-11.29-2.4-18.49-8.53C1658.42,251.8,1660.89,266.05,1671.9,271.46ZM1690.46,239a4.44,4.44,0,1,0,3.31,5.34A4.44,4.44,0,0,0,1690.46,239Z" style="fill:none;stroke-miterlimit:10;stroke-width:1.4056440810857px;stroke:url(#aefe674a-1ccd-4aa1-9e95-d5e052b9fcf0)"/><path d="M1336.27,229.19a3.95,3.95,0,1,1,2.22-5.12A3.95,3.95,0,0,1,1336.27,229.19Zm332.65-34.11a3.94,3.94,0,1,0,2.23-5.11A3.95,3.95,0,0,0,1668.92,195.08Zm-183.86-83.27c108.09-24.52,159.78,14.4,159.78,14.4s-13.59-1.21-3.68,6.13c17.11,12.67,11.79,28-1.9,21.36-7.32-3.57-17.18-6.32-18.87-4.3-.94,1.11.35,4.34,6.39,8.28,17,11.1,5.6,11.85,3.14,17.5s10.22,10.5,10.22,10.5c-6,.5-12,2.85,6.48,12.9s10.1,18.52,10.1,18.52-70.26-55.83-161.54-32C1420.85,204.54,1377,270.5,1377,270.5c-2.11.95-6-3.74-1.74-10.75,1.91-3.12,4.33-7.08,2.62-9-3.19-3.59-7,5.17-7,5.17-4.4-8.57.55-21.64.55-21.64-3.87,4.82-8.62,7.08-10.17,4-2.14-4.28,4.43-6.59.84-11.51-4-5.47-11.41,5.58-11.41,5.58-5.18-5.85-2.53-11.59,2.19-15.3s12.33-9,9.32-12.51c-3.38-4-8.11,4-8.11,4s-10.34,15.73-13.29,9.15c-3.34-7.45,7.24-13.55,14.48-17.65,9.49-5.39,5.61-9.83,5.61-9.83-9.87,7.38-8.59.7-3.29-4.69S1402.68,130.5,1485.06,111.81Zm-101.2,126.83c-3.08,3.06-4.62,6.5-3.45,7.69s4.63-.34,7.7-3.4,4.63-6.5,3.45-7.68S1386.94,235.58,1383.86,238.64ZM1594.46,130c1,1.66,4.4,1,8.39.44,5.35-.69,16.43-1,25.39,10s9.65-1.48,2.1-8-21.38-9.17-30.52-7C1596.88,126.16,1593.39,128.26,1594.46,130Zm53.78,56.55c6.24,3.56,12.41,4.5,13.78,2.11s-2.59-7.23-8.83-10.8-12.41-4.5-13.78-2.1S1642,183,1648.24,186.51Z" style="fill:none;stroke-miterlimit:10;stroke-width:1.4056440810857px;stroke:url(#b23ca6b3-549a-46f7-8f4f-5c0eb7464afe)"/><path d="M1782.22,100.62a1.54,1.54,0,1,1-.59,2.1A1.54,1.54,0,0,1,1782.22,100.62Zm-127.24,31a1.54,1.54,0,1,0-.59,2.11A1.55,1.55,0,0,0,1655,131.66Zm75.79,22.47c-40.62,15.3-62.76,3-62.76,3s5.34-.26,1.1-2.57c-7.31-4-6.08-10.24-.41-8.39,3,1,7,1.53,7.56.66.3-.48-.37-1.67-2.93-2.87-7.19-3.4-2.8-4.3-2.15-6.62s-4.53-3.53-4.53-3.53c2.32-.52,4.5-1.75-3.21-4.66s-4.9-6.64-4.9-6.64,30.25,17.9,64.38,3.76c27.8-11.52,41.27-39.46,41.27-39.46.77-.48,2.55,1.13,1.26,4.08-.58,1.31-1.3,3-.54,3.63,1.43,1.22,2.45-2.38,2.45-2.38,2.16,3.09.94,8.43.94,8.43,1.25-2.08,3-3.21,3.73-2.1,1.06,1.54-1.36,2.79.3,4.51,1.84,1.91,4.13-2.77,4.13-2.77,2.32,2,1.6,4.36,0,6s-4.3,4.13-2.94,5.35c1.52,1.36,2.93-2,2.93-2s3.17-6.66,4.67-4.26c1.69,2.71-2.09,5.64-4.68,7.62-3.39,2.6-1.65,4.12-1.65,4.12,3.44-3.4,3.3-.73,1.53,1.64S1761.73,142.46,1730.77,154.13Zm32.47-54.63c1-1.35,1.45-2.77.93-3.17s-1.78.38-2.81,1.74-1.44,2.76-.92,3.16S1762.21,100.85,1763.24,99.5Zm-75.88,53.44c-.49-.59-1.76-.13-3.28.28a10.52,10.52,0,0,1-10.39-2.52c-4.06-3.79-3.66,1.09-.39,3.2s8.79,2.41,12.22,1.08C1686.62,154.55,1687.86,153.55,1687.36,152.94Zm-23.89-19.06c-2.62-1-5.06-1.08-5.46-.08s1.39,2.67,4,3.72,5.06,1.08,5.46.08S1666.08,134.93,1663.47,133.88Z" style="fill:none;stroke-miterlimit:10;stroke-width:1.4056440810857px;stroke:url(#b35cd830-938b-4205-bc1a-068868455977)"/><path d="M907,233a1.55,1.55,0,1,1,1.24-1.8A1.55,1.55,0,0,1,907,233Zm130.41,12a1.54,1.54,0,1,0,3-.55,1.54,1.54,0,0,0-3,.55ZM973,199.16c43.39-1.27,60.32,17.59,60.32,17.59s-5.14-1.49-1.88,2.08c5.62,6.16,2.42,11.66-2.34,8.06-2.55-1.92-6.13-3.72-6.93-3.07-.44.35-.19,1.69,1.83,3.66,5.7,5.55,1.26,5-.11,7s3.13,4.81,3.13,4.81c-2.35-.26-4.82.19,1.52,5.45s2.48,7.87,2.48,7.87-22.79-26.75-59.67-24.48c-30,1.86-51.85,23.9-51.85,23.9-.88.2-2-1.89.14-4.26,1-1.06,2.2-2.4,1.69-3.27-1-1.61-3.09,1.46-3.09,1.46-1-3.62,1.84-8.27,1.84-8.27-1.85,1.56-3.84,2.07-4.2.77-.5-1.81,2.19-2.2,1.18-4.36-1.12-2.41-4.8,1.28-4.8,1.28-1.55-2.64-.1-4.64,2-5.71s5.41-2.51,4.52-4.11c-1-1.78-3.42.93-3.42.93s-5.16,5.27-5.8,2.51c-.72-3.11,3.81-4.65,6.9-5.69,4-1.35,2.9-3.35,2.9-3.35-4.35,2.09-3.35-.38-.91-2S939.92,200.12,973,199.16Zm-48.46,41.1c-1.42,1-2.27,2.15-1.91,2.7s1.8.22,3.22-.73,2.26-2.15,1.9-2.69S925.94,239.32,924.53,240.26Zm89.13-25.87c.27.72,1.62.7,3.19.8a10.51,10.51,0,0,1,9,5.76c2.62,4.9,3.83.16,1.41-2.9s-7.52-5.14-11.2-5C1014.88,213.11,1013.38,213.65,1013.66,214.39Zm16.4,25.79c2.13,1.84,4.43,2.67,5.14,1.85s-.45-3-2.58-4.81-4.43-2.67-5.14-1.85S1027.93,238.34,1030.06,240.18Z" style="fill:none;stroke-miterlimit:10;stroke-width:1.4056440810857px;stroke:url(#a14407e4-1376-48e6-9b3c-21e9f01d3e53)"/><path d="M341.4,233a1.54,1.54,0,1,1,1.24-1.8A1.55,1.55,0,0,1,341.4,233Zm130.42,12a1.54,1.54,0,1,0,1.24-1.79A1.54,1.54,0,0,0,471.82,245Zm-64.38-45.87c43.39-1.27,60.32,17.59,60.32,17.59s-5.13-1.49-1.87,2.08c5.61,6.16,2.41,11.66-2.35,8.06-2.54-1.92-6.12-3.72-6.93-3.07-.44.35-.19,1.69,1.84,3.66,5.7,5.55,1.25,5-.12,7s3.14,4.81,3.14,4.81c-2.36-.26-4.83.19,1.52,5.45s2.48,7.87,2.48,7.87-22.79-26.75-59.67-24.48C375.77,230,354,252,354,252c-.89.2-2.05-1.89.14-4.26,1-1.06,2.2-2.4,1.68-3.27-.95-1.61-3.08,1.46-3.08,1.46-1.05-3.62,1.84-8.27,1.84-8.27-1.85,1.56-3.85,2.07-4.21.77-.5-1.81,2.2-2.2,1.19-4.36-1.12-2.41-4.81,1.28-4.81,1.28-1.54-2.64-.09-4.64,2-5.71s5.42-2.51,4.53-4.11c-1-1.78-3.42.93-3.42.93s-5.16,5.27-5.8,2.51c-.72-3.11,3.8-4.65,6.9-5.69,4-1.35,2.89-3.35,2.89-3.35-4.35,2.09-3.35-.38-.91-2S374.38,200.12,407.44,199.16ZM359,240.26c-1.41,1-2.27,2.15-1.9,2.7s1.8.22,3.21-.73,2.27-2.15,1.91-2.69S360.39,239.32,359,240.26Zm89.14-25.87c.27.72,1.61.7,3.19.8a10.51,10.51,0,0,1,9,5.76c2.61,4.9,3.82.16,1.41-2.9s-7.52-5.14-11.2-5C449.33,213.11,447.83,213.65,448.12,214.39Zm16.4,25.79c2.13,1.84,4.43,2.67,5.13,1.85s-.44-3-2.57-4.81-4.43-2.67-5.14-1.85S462.39,238.34,464.52,240.18Z" style="fill:none;stroke-miterlimit:10;stroke-width:1.4056440810857px;stroke:url(#b1db5330-3976-4ec6-9275-9b3b5e698910)"/><path d="M1071.68,111.48c11.72,5.39,13.19,3,22.43,3.72s7.42,4.08,5.68,5.15c-2.8,1.72-10,4.65-19.46,2.85C1066.87,120.64,1060,106.09,1071.68,111.48ZM1359.49,281c-7.59,2.95-13,3.18-23.52.42-12.92-3.37-3.19,10.22,11,10.3,10,.06,16.77-4.25,19.28-6.55C1369.66,282,1370.19,276.84,1359.49,281ZM1091.38,132.26c-.05.91,1.8,1.76,4.15,1.91s4.29-.46,4.35-1.36-1.8-1.76-4.14-1.91S1091.44,131.36,1091.38,132.26Zm268,116.31c-3.28,1.83-5.37,4.34-4.66,5.6s3.93.79,7.21-1,5.37-4.34,4.66-5.6S1362.62,246.74,1359.34,248.57Zm1.33,18.27a3.24,3.24,0,1,0,4.55-.46A3.25,3.25,0,0,0,1360.67,266.84ZM1076.26,100.45c-4.72-1.64-10.18-4.58-7.86-7.09s6.44.52,6.44.52c15.66,6.18,40.41-.52,42.53-1S1167.25,79,1196.8,79.18c82.75.4,112.18,69.82,119.59,87,2.49,5.75,8.55,24.19,12.08,41.79s10.06,22.71,10.06,22.71c7.6-4.26,9.84-3.45,7.83,3.59s2.6,3.44,2.6,3.44c3.29,10.89-8.37,14-8.37,14s-.87,1.33,5.09-.9c5.39-2,6.69,3.63,1.45,5.43s-8.17,10.43-1.67,6.51,11.28-6.4,12.13-4.47-4.22,4-4.22,4c.91,1,.82,3.26-1.45,4.86s-8.7,6.05-21.34,0c-11.21-5.39-10.25.06-10.25.06a40.14,40.14,0,0,0,35.72,2.45s3.8,12-18.45,7.48-28-12.85-29.81-15.33c-2.34-3.18-6.66-4.18-3.65.46s12.45,9.55,12.45,9.55c-2.24,1.42-6.42-.77-6.42-.77-28-14.53-35.82-63.77-37.27-69.77s-7.6-45.47-36.72-61.35-96.08,3.46-105,5.63-5.39-4.44-5.39-4.44c-12.67-.68-16.25-3.73-18.89-6.57s-2.62-5.58.26-5.57a10.92,10.92,0,0,0,4.93-1.13,6.63,6.63,0,0,1,4.86-1.92c11.07-.9,16-5,16-5-4.89-1.78-9.93-.51-16.36.45s-11.28-1.2-10.64-4.8.45-6.53-6.55-5.72-8.17-.63-7.76-4S1081,102.1,1076.26,100.45ZM1124,130.73c-2.76.39-4.87,1.56-4.73,2.61s2.5,1.61,5.26,1.23,4.88-1.55,4.73-2.61S1126.78,130.35,1124,130.73Zm199.71,123.91a16.21,16.21,0,0,0,9.49,6.16c2.54.41,5-1.14-.5-4.38-3.9-2.29-5.84-4.55-8.28-10.11C1321.47,239.52,1318.89,248.43,1323.73,254.64Zm19.82-13.51a2.85,2.85,0,1,0,.41,4A2.85,2.85,0,0,0,1343.55,241.13Z" style="fill:none;stroke-miterlimit:10;stroke-width:1.4056440810857px;stroke:url(#fd0ecbe5-3fc9-4b24-b785-d8e62a098658)"/><path d="M1376.92,134a3.95,3.95,0,1,1-2.23,5.12A3.94,3.94,0,0,1,1376.92,134Zm-332.66,34.11a3.94,3.94,0,1,0-2.23,5.12A3.94,3.94,0,0,0,1044.26,168.13Zm183.86,83.27C1120,275.93,1068.34,237,1068.34,237s13.59,1.21,3.68-6.13c-17.11-12.66-11.79-28,1.9-21.36,7.33,3.57,17.18,6.32,18.87,4.31.94-1.11-.34-4.34-6.39-8.29-17-11.1-5.6-11.84-3.14-17.5S1073,177.54,1073,177.54c6-.5,12-2.85-6.48-12.91s-10.1-18.51-10.1-18.51,70.26,55.82,161.54,32c74.34-19.42,118.17-85.39,118.17-85.39,2.11-.94,6,3.74,1.74,10.75-1.91,3.12-4.33,7.09-2.62,9,3.19,3.58,7-5.17,7-5.17,4.4,8.56-.55,21.64-.55,21.64,3.87-4.82,8.63-7.09,10.17-4,2.14,4.27-4.42,6.58-.83,11.5,4,5.48,11.4-5.57,11.4-5.57,5.18,5.85,2.53,11.59-2.19,15.3s-12.33,9-9.32,12.51c3.38,4,8.11-4,8.11-4s10.34-15.74,13.29-9.15c3.34,7.45-7.24,13.54-14.48,17.65-9.49,5.38-5.61,9.83-5.61,9.83,9.87-7.39,8.59-.7,3.29,4.68S1310.5,232.72,1228.12,251.4Zm101.2-126.83c3.08-3.06,4.62-6.5,3.45-7.68s-4.62.34-7.7,3.4-4.62,6.5-3.45,7.68S1326.24,127.63,1329.32,124.57ZM1118.73,233.25c-1-1.66-4.4-1-8.4-.44-5.35.69-16.43,1-25.39-10s-9.65,1.48-2.1,8,21.38,9.17,30.53,7C1116.3,237.05,1119.79,235,1118.73,233.25ZM1065,176.71c-6.25-3.57-12.42-4.51-13.79-2.11s2.59,7.23,8.83,10.79,12.41,4.51,13.78,2.11S1071.19,180.27,1065,176.71Z" style="fill:none;stroke-miterlimit:10;stroke-width:1.4056440810857px;stroke:url(#a9e30fa1-4179-40cf-b4d6-78890747ad50)"/><path d="M341,134a3.95,3.95,0,1,1-2.23,5.12A3.94,3.94,0,0,1,341,134ZM8.32,168.13a3.94,3.94,0,1,0-2.22,5.12A3.94,3.94,0,0,0,8.32,168.13ZM192.18,251.4C84.09,275.93,32.4,237,32.4,237s13.59,1.21,3.68-6.13c-17.11-12.66-11.79-28,1.9-21.36,7.33,3.57,17.18,6.32,18.87,4.31.94-1.11-.34-4.34-6.39-8.29-17-11.1-5.6-11.84-3.14-17.5S37.1,177.54,37.1,177.54c6-.5,12-2.85-6.48-12.91s-10.1-18.51-10.1-18.51,70.26,55.82,161.55,32c74.33-19.42,118.16-85.39,118.16-85.39,2.11-.94,6,3.74,1.74,10.75-1.91,3.12-4.33,7.09-2.62,9,3.19,3.58,7-5.17,7-5.17,4.4,8.56-.55,21.64-.55,21.64,3.87-4.82,8.63-7.09,10.17-4,2.14,4.27-4.42,6.58-.83,11.5,4,5.48,11.41-5.57,11.41-5.57,5.17,5.85,2.52,11.59-2.2,15.3s-12.33,9-9.32,12.51c3.38,4,8.11-4,8.11-4s10.34-15.74,13.29-9.15c3.34,7.45-7.24,13.54-14.48,17.65-9.49,5.38-5.61,9.83-5.61,9.83,9.87-7.39,8.59-.7,3.29,4.68S274.56,232.72,192.18,251.4Zm101.2-126.83c3.08-3.06,4.63-6.5,3.45-7.68s-4.62.34-7.7,3.4-4.62,6.5-3.45,7.68S290.31,127.63,293.38,124.57ZM82.79,233.25c-1-1.66-4.4-1-8.4-.44-5.35.69-16.43,1-25.39-10s-9.65,1.48-2.1,8,21.38,9.17,30.53,7C80.36,237.05,83.85,235,82.79,233.25ZM29,176.71c-6.25-3.57-12.42-4.51-13.79-2.11s2.59,7.23,8.83,10.79,12.42,4.51,13.78,2.11S35.25,180.27,29,176.71Z" style="fill:none;stroke-miterlimit:10;stroke-width:1.4056440810857px;stroke:url(#fcf831ca-de32-4d21-b13f-dbd704196a76)"/><path d="M705.13,242.69c20.1-.44,20.49-4.86,34-10.08s13.17.66,11.47,3.34c-2.75,4.33-10.84,13.33-25.34,17.26C704.63,258.8,685,243.13,705.13,242.69ZM1224,284c-8.62,9.31-16,13.27-32.68,16.63-20.39,4.09,2.51,16.49,22.43,6.94,14-6.73,20.61-17.39,22.55-22.33C1239,278.52,1236.18,270.88,1224,284ZM746.91,258.38c.53,1.31,3.71,1.23,7.1-.16s5.71-3.57,5.18-4.87-3.72-1.23-7.11.16S746.38,257.08,746.91,258.38Zm454.79-19.72c-3.35,4.81-4.56,9.75-2.72,11s6.06-1.57,9.4-6.37,4.56-9.74,2.71-11S1205,233.86,1201.7,238.66Zm14.32,24.7a5,5,0,1,0,6.06-3.75A5,5,0,0,0,1216,263.36ZM704,224.11c-7.74.92-17.4.53-15.85-4.58s9.38-3.65,9.38-3.65c26.15-2,56.27-28.29,58.89-30.42s60.48-53.39,102-73.34c116.24-55.86,204.8,21.36,226.88,40.32,7.4,6.35,28.46,28.06,45.41,50.32s29.59,25,29.59,25c7.74-11.15,11.43-11.53,13.41-.29s6,3,6,3c12,13-2.16,25.35-2.16,25.35s-.31,2.46,6.51-4.72c6.19-6.5,11.85.52,5.74,6.61s-4.34,20.19,2.09,10.26,11.45-16.65,13.95-14.53-3.16,8.53-3.16,8.53c2,.84,3.37,4,1.28,7.79s-8.07,14.41-29.92,14.52c-19.38.09-14.32,7.07-14.32,7.07,33.88,2.14,51.72-20.91,51.72-20.91s13.49,14.17-20.75,23.05-48,1.08-52.23-1.15c-5.44-2.87-12.18-1.33-4.79,3.14s24,4.88,24,4.88c-2.17,3.53-9.51,3.31-9.51,3.31-49.13-1.28-93.68-64.94-99.81-72.37s-41.65-58.53-93.28-60.92-132.28,70.34-143.26,79.46-10.57-2.55-10.57-2.55c-18.23,7.69-25.32,5.85-31,3.67s-7.48-6-3.43-8A17.17,17.17,0,0,0,773,238a10.33,10.33,0,0,1,5.5-6c14.89-8.81,19.09-17.92,19.09-17.92-8.07.85-14.25,6.06-22.61,11.79s-16.64,6-18.19.53-3.83-9.46-13.08-3.55-11.88,4.69-13.6-.34S711.77,223.19,704,224.11ZM791.6,234c-3.6,2.41-5.77,5.49-4.85,6.88s4.61.54,8.21-1.87,5.77-5.5,4.84-6.88S795.2,231.57,791.6,234Zm364.34,37.47c7.75,3.8,14.67,3,17.49,2.15,3.85-1.15,6.23-5-3.68-5.79-7-.56-11.29-2.4-18.49-8.53C1142.46,251.8,1144.93,266.05,1155.94,271.46ZM1174.5,239a4.44,4.44,0,1,0,3.31,5.34A4.44,4.44,0,0,0,1174.5,239Z" style="fill:none;stroke-miterlimit:10;stroke-width:1.4056440810857px;stroke:url(#a4006852-6468-44b8-80c5-a8fbf879b75b)"/><path d="M820.31,229.19a3.94,3.94,0,1,1,2.22-5.12A3.95,3.95,0,0,1,820.31,229.19ZM1153,195.08a3.94,3.94,0,1,0,2.23-5.11A3.95,3.95,0,0,0,1153,195.08ZM969.1,111.81c108.09-24.52,159.78,14.4,159.78,14.4s-13.59-1.21-3.68,6.13c17.11,12.67,11.79,28-1.89,21.36-7.33-3.57-17.19-6.32-18.88-4.3-.94,1.11.35,4.34,6.39,8.28,17,11.1,5.6,11.85,3.14,17.5s10.22,10.5,10.22,10.5c-6,.5-12,2.85,6.48,12.9s10.1,18.52,10.1,18.52-70.26-55.83-161.54-32c-74.33,19.42-118.17,85.38-118.17,85.38-2.11.95-6-3.74-1.74-10.75,1.91-3.12,4.33-7.08,2.62-9-3.18-3.59-7,5.17-7,5.17-4.4-8.57.55-21.64.55-21.64-3.87,4.82-8.62,7.08-10.17,4-2.14-4.28,4.43-6.59.84-11.51-4-5.47-11.41,5.58-11.41,5.58-5.18-5.85-2.53-11.59,2.19-15.3s12.34-9,9.32-12.51c-3.38-4-8.11,4-8.11,4s-10.34,15.73-13.29,9.15c-3.34-7.45,7.24-13.55,14.48-17.65,9.49-5.39,5.61-9.83,5.61-9.83-9.87,7.38-8.58.7-3.29-4.69S886.72,130.5,969.1,111.81ZM867.9,238.64c-3.08,3.06-4.62,6.5-3.45,7.69s4.63-.34,7.7-3.4,4.63-6.5,3.45-7.68S871,235.58,867.9,238.64ZM1078.5,130c1,1.66,4.4,1,8.39.44,5.35-.69,16.43-1,25.39,10s9.65-1.48,2.1-8-21.37-9.17-30.52-7C1080.92,126.16,1077.43,128.26,1078.5,130Zm53.78,56.55c6.24,3.56,12.41,4.5,13.78,2.11s-2.59-7.23-8.83-10.8-12.41-4.5-13.78-2.1S1126,183,1132.28,186.51Z" style="fill:none;stroke-miterlimit:10;stroke-width:1.4056440810857px;stroke:url(#f838c7aa-87b6-4a63-853d-545e14501abc)"/><path d="M549,111.48c11.72,5.39,13.19,3,22.43,3.72s7.42,4.08,5.68,5.15c-2.8,1.72-10,4.65-19.46,2.85C544.21,120.64,537.31,106.09,549,111.48ZM836.83,281c-7.59,2.95-13,3.18-23.52.42-12.92-3.37-3.19,10.22,11,10.3,10,.06,16.77-4.25,19.28-6.55C847,282,847.53,276.84,836.83,281ZM568.72,132.26c-.05.91,1.8,1.76,4.15,1.91s4.29-.46,4.35-1.36-1.8-1.76-4.14-1.91S568.78,131.36,568.72,132.26Zm268,116.31c-3.28,1.83-5.37,4.34-4.66,5.6s3.93.79,7.21-1,5.37-4.34,4.66-5.6S840,246.74,836.68,248.57ZM838,266.84a3.24,3.24,0,1,0,4.55-.46A3.24,3.24,0,0,0,838,266.84ZM553.6,100.45c-4.72-1.64-10.18-4.58-7.86-7.09s6.44.52,6.44.52c15.66,6.18,40.41-.52,42.53-1S644.59,79,674.14,79.18c82.75.4,112.18,69.82,119.59,87,2.49,5.75,8.55,24.19,12.08,41.79s10.06,22.71,10.06,22.71c7.6-4.26,9.84-3.45,7.83,3.59s2.6,3.44,2.6,3.44c3.29,10.89-8.37,14-8.37,14s-.87,1.33,5.09-.9c5.39-2,6.69,3.63,1.45,5.43s-8.17,10.43-1.67,6.51,11.28-6.4,12.13-4.47-4.22,4-4.22,4c.91,1,.82,3.26-1.45,4.86s-8.71,6.05-21.34,0c-11.21-5.39-10.25.06-10.25.06a40.14,40.14,0,0,0,35.72,2.45s3.8,12-18.45,7.48-28-12.85-29.81-15.33c-2.34-3.18-6.66-4.18-3.65.46s12.45,9.55,12.45,9.55c-2.24,1.42-6.42-.77-6.42-.77-28-14.53-35.82-63.77-37.27-69.77s-7.6-45.47-36.72-61.35-96.08,3.46-105,5.63-5.39-4.44-5.39-4.44c-12.67-.68-16.25-3.73-18.89-6.57s-2.62-5.58.26-5.57a10.92,10.92,0,0,0,4.93-1.13,6.63,6.63,0,0,1,4.86-1.92c11.07-.9,16-5,16-5-4.89-1.78-9.93-.51-16.36.45s-11.28-1.2-10.64-4.8.45-6.53-6.55-5.72-8.17-.63-7.76-4S558.33,102.1,553.6,100.45Zm47.76,30.28c-2.76.39-4.87,1.56-4.73,2.61s2.5,1.61,5.26,1.23,4.88-1.55,4.73-2.61S604.12,130.35,601.36,130.73ZM801.07,254.64a16.21,16.21,0,0,0,9.49,6.16c2.54.41,5-1.14-.5-4.38-3.9-2.29-5.84-4.55-8.28-10.11C798.81,239.52,796.23,248.43,801.07,254.64Zm19.82-13.51a2.85,2.85,0,1,0,.41,4A2.85,2.85,0,0,0,820.89,241.13Z" style="fill:none;stroke-miterlimit:10;stroke-width:1.4056440810857px;stroke:url(#af68561d-e1d3-4ce9-8e52-d1d5f3cf2c53)"/><path d="M854.26,134a3.95,3.95,0,1,1-2.23,5.12A3.95,3.95,0,0,1,854.26,134ZM521.6,168.13a3.94,3.94,0,1,0-2.23,5.12A3.94,3.94,0,0,0,521.6,168.13ZM705.46,251.4C597.37,275.93,545.68,237,545.68,237s13.59,1.21,3.68-6.13c-17.11-12.66-11.79-28,1.9-21.36,7.33,3.57,17.18,6.32,18.87,4.31.94-1.11-.34-4.34-6.39-8.29-17-11.1-5.6-11.84-3.14-17.5s-10.22-10.49-10.22-10.49c6-.5,12-2.85-6.48-12.91s-10.1-18.51-10.1-18.51,70.26,55.82,161.54,32c74.34-19.42,118.17-85.39,118.17-85.39,2.11-.94,6,3.74,1.74,10.75-1.91,3.12-4.33,7.09-2.62,9,3.19,3.58,7-5.17,7-5.17,4.4,8.56-.55,21.64-.55,21.64,3.87-4.82,8.63-7.09,10.17-4,2.14,4.27-4.42,6.58-.83,11.5,4,5.48,11.4-5.57,11.4-5.57,5.18,5.85,2.53,11.59-2.19,15.3s-12.33,9-9.32,12.51c3.38,4,8.11-4,8.11-4s10.34-15.74,13.29-9.15c3.34,7.45-7.24,13.54-14.48,17.65-9.49,5.38-5.61,9.83-5.61,9.83,9.87-7.39,8.59-.7,3.29,4.68S787.84,232.72,705.46,251.4Zm101.2-126.83c3.08-3.06,4.62-6.5,3.45-7.68s-4.62.34-7.7,3.4-4.62,6.5-3.45,7.68S803.58,127.63,806.66,124.57ZM596.06,233.25c-1-1.66-4.39-1-8.39-.44-5.35.69-16.43,1-25.39-10s-9.65,1.48-2.1,8,21.38,9.17,30.53,7C593.64,237.05,597.13,235,596.06,233.25Zm-53.78-56.54c-6.24-3.57-12.41-4.51-13.78-2.11s2.59,7.23,8.83,10.79,12.41,4.51,13.78,2.11S548.53,180.27,542.28,176.71Z" style="fill:none;stroke-miterlimit:10;stroke-width:1.4056440810857px;stroke:url(#f6832ee3-2b1b-4d11-9430-f5d48609e085)"/><path d="M182.47,242.69c20.1-.44,20.49-4.86,34-10.08s13.17.66,11.47,3.34c-2.75,4.33-10.84,13.33-25.34,17.26C182,258.8,162.38,243.13,182.47,242.69ZM701.36,284c-8.62,9.31-16,13.27-32.68,16.63-20.39,4.09,2.51,16.49,22.43,6.94,14-6.73,20.61-17.39,22.55-22.33C716.31,278.52,713.52,270.88,701.36,284ZM224.25,258.38c.53,1.31,3.71,1.23,7.1-.16s5.71-3.57,5.18-4.87-3.72-1.23-7.11.16S223.72,257.08,224.25,258.38ZM679,238.66c-3.35,4.81-4.56,9.75-2.72,11s6.06-1.57,9.4-6.37,4.56-9.74,2.71-11S682.38,233.86,679,238.66Zm14.32,24.7a5,5,0,1,0,6.06-3.75A5,5,0,0,0,693.36,263.36Zm-512-39.25c-7.74.92-17.4.53-15.85-4.58s9.38-3.65,9.38-3.65c26.15-2,56.27-28.29,58.89-30.42s60.48-53.39,102-73.34C452,56.26,540.58,133.48,562.66,152.44c7.4,6.35,28.46,28.06,45.41,50.32s29.59,25,29.59,25c7.74-11.15,11.43-11.53,13.41-.29s6,3,6,3c12,13-2.16,25.35-2.16,25.35s-.31,2.46,6.51-4.72c6.19-6.5,11.85.52,5.74,6.61s-4.34,20.19,2.09,10.26,11.44-16.65,14-14.53S680,262,680,262c2,.84,3.37,4,1.28,7.79s-8.07,14.41-29.92,14.52c-19.39.09-14.32,7.07-14.32,7.07,33.88,2.14,51.72-20.91,51.72-20.91s13.49,14.17-20.75,23.05-48,1.08-52.23-1.15c-5.44-2.87-12.18-1.33-4.79,3.14s24,4.88,24,4.88c-2.17,3.53-9.51,3.31-9.51,3.31-49.13-1.28-93.68-64.94-99.81-72.37S484,172.77,432.37,170.38s-132.28,70.34-143.26,79.46-10.57-2.55-10.57-2.55c-18.23,7.69-25.32,5.85-31,3.67s-7.47-6-3.42-8a17.17,17.17,0,0,0,6.14-4.94,10.33,10.33,0,0,1,5.5-6c14.89-8.81,19.09-17.92,19.09-17.92-8.07.85-14.25,6.06-22.61,11.79s-16.64,6-18.19.53S230.25,217,221,222.87s-11.88,4.69-13.61-.34S189.11,223.19,181.37,224.11ZM268.94,234c-3.61,2.41-5.77,5.49-4.85,6.88s4.61.54,8.21-1.87,5.77-5.5,4.84-6.88S272.54,231.57,268.94,234Zm364.34,37.47c7.75,3.8,14.67,3,17.49,2.15,3.85-1.15,6.23-5-3.68-5.79-7-.56-11.29-2.4-18.49-8.53C619.8,251.8,622.27,266.05,633.28,271.46ZM651.84,239a4.44,4.44,0,1,0,3.31,5.34A4.44,4.44,0,0,0,651.84,239Z" style="fill:none;stroke-miterlimit:10;stroke-width:1.4056440810857px;stroke:url(#b014e9ab-04a2-4289-91bf-8b401fb5e640)"/><path d="M297.65,229.19a3.95,3.95,0,1,1,2.22-5.12A3.95,3.95,0,0,1,297.65,229.19ZM630.3,195.08a3.94,3.94,0,1,0,2.23-5.11A3.95,3.95,0,0,0,630.3,195.08ZM446.44,111.81c108.09-24.52,159.78,14.4,159.78,14.4s-13.59-1.21-3.68,6.13c17.11,12.67,11.79,28-1.9,21.36-7.32-3.57-17.18-6.32-18.87-4.3-.94,1.11.35,4.34,6.39,8.28,17,11.1,5.6,11.85,3.14,17.5s10.22,10.5,10.22,10.5c-6,.5-12,2.85,6.48,12.9s10.1,18.52,10.1,18.52-70.26-55.83-161.54-32c-74.33,19.42-118.17,85.38-118.17,85.38-2.11.95-6-3.74-1.74-10.75,1.91-3.12,4.33-7.08,2.62-9-3.18-3.59-7,5.17-7,5.17-4.4-8.57.55-21.64.55-21.64-3.87,4.82-8.62,7.08-10.17,4-2.14-4.28,4.43-6.59.84-11.51-4-5.47-11.41,5.58-11.41,5.58-5.18-5.85-2.53-11.59,2.19-15.3s12.34-9,9.32-12.51c-3.38-4-8.11,4-8.11,4s-10.34,15.73-13.29,9.15c-3.34-7.45,7.24-13.55,14.48-17.65,9.49-5.39,5.61-9.83,5.61-9.83-9.87,7.38-8.59.7-3.29-4.69S364.06,130.5,446.44,111.81ZM345.24,238.64c-3.08,3.06-4.62,6.5-3.45,7.69s4.63-.34,7.7-3.4,4.63-6.5,3.45-7.68S348.32,235.58,345.24,238.64ZM555.84,130c1,1.66,4.4,1,8.39.44,5.35-.69,16.43-1,25.39,10s9.65-1.48,2.1-8-21.38-9.17-30.52-7C558.26,126.16,554.77,128.26,555.84,130Zm53.78,56.55c6.24,3.56,12.41,4.5,13.78,2.11s-2.59-7.23-8.83-10.8-12.41-4.5-13.78-2.1S603.37,183,609.62,186.51Z" style="fill:none;stroke-miterlimit:10;stroke-width:1.4056440810857px;stroke:url(#f327a109-626f-45cb-83a9-a62bd2dc142e)"/><path d="M1675.86,162.57c2.09-2.65,9.38-.39,16.28,5.05s10.81,12,8.72,14.65-9.38.4-16.29-5.05S1673.77,165.22,1675.86,162.57Zm-53,103c14.09-34.42,31.16-25.3,31.16-25.3-1.2-36.67,15.63-39.68,15.63-39.68,27.65,14.43,18.64,77,18.64,77,13.22-16.23,13.22-33.67,9-52.9s-10.82-35.47,3.61-34.27,17.12-2.42,6.61-15c-56.38-67.63-151.86-54.87-180.34-46.28-21.3,6.41-37.4,11.53-46.12,5.2-7.55-5.49,10.53-17,25.87-23.5,47.82-20.13,124.73-17.18,171.74,4.47,92.91,42.79,104.45,137.66,61.67,211.33M1129.8,275.14c.47-194.35,196.58-187.55,196.58-187.55,69.73,0,112.41,27.65,135.25,43.88s15.63,21,15.63,21c-19.83-18-60.11-25.25-60.11-25.25,15.63,3.61,43.88,34.87,5.41,17.44s-67.93-9-67.93-9c36.07.6,69.13,30.06,31.86,20.44s-24.65,6.61-13.83,9,27.66,3.61,20.44,13.23-21,2.4-39.07-3.61-51.1-6.61-51.1,3,37.19,5.29,56.51,5.41c27.78.18,39.07,30.08,7.1,15.8-41.36-18.48-76.23-3.78-76.23-3.78,12,1.2,13.22,5.41,13.22,5.41-109.4,38.48-39.67,113-10.22,140.67m8.59-215.13c2.75,1.34,8.74-1,16-3.42,9.74-3.24,30.46-8.7,52.62-.82s17.47-6.11.12-9.71-44.68-.12-60.85,6.52C1304.62,120.85,1299.07,124.77,1301.9,126.14ZM1722,210a6.88,6.88,0,1,0-6.87,6.88A6.87,6.87,0,0,0,1722,210Zm-67-46.51c-17.94-15.69-51.77-25-74.58-22.73-7.32.72-16.15,4.24-13.71,8.13s10.76,3.17,20.68,3.12c13.27-.06,40.64,2.22,61.56,27.79S1673,179.22,1655,163.53Zm-246.45-4.06c-1.13,2.85,4,7.55,11.39,10.49s14.35,3,15.48.16-4-7.54-11.39-10.48S1409.72,156.62,1408.59,159.47Zm228.48,53.74c0,8,2.48,14.46,5.55,14.46s5.55-6.48,5.55-14.46-2.48-14.45-5.55-14.45S1637.07,205.23,1637.07,213.21Zm-238.83-13.28a6.23,6.23,0,1,0,6.23,6.23A6.23,6.23,0,0,0,1398.24,199.93Z" style="fill:none;stroke-miterlimit:10;stroke-width:1.4056440810857px;stroke:url(#f6d04583-ff25-44c7-9b3d-0c8d19d0f479)"/><rect x="303.39" width="1535.82" height="217.11" style="fill:none"/><path d="M1453,311.5c22.84,16.23,65.53,43.89,135.26,43.89,0,0,196.11,6.79,196.57-187.56,0-21.24-5.35-42-15-62.17-31.83,7.55-56.48,6.71-56.48,6.71-51.07,0-87.61-14.83-112.49-29.14,8,7,15,13.34,20.47,18.47,29.46,27.66,99.19,102.2-10.22,140.67,0,0,1.2,4.21,13.23,5.41,0,0-34.87,14.71-76.24-3.78-32-14.28-20.68,15.63,7.11,15.8,19.32.13,56.5-4.2,56.5,5.41s-33.06,9-51.09,3-31.87-13.22-39.08-3.61,9.62,10.82,20.44,13.23,23.44,18.63-13.83,9-4.2,19.83,31.86,20.43c0,0-29.45,8.42-67.92-9s-10.22,13.82,5.41,17.43c0,0-40.28-7.21-60.12-25.25C1437.35,290.46,1430.14,295.27,1453,311.5Zm91.09,9.57c22.16,7.88,42.89,2.42,52.62-.82,7.28-2.42,13.27-4.75,16-3.41s-2.73,5.29-7.92,7.42c-16.17,6.65-43.49,10.13-60.84,6.52S1521.91,313.19,1544.07,321.07Zm-196.21-27c2.45,3.88-6.39,7.4-13.7,8.12-22.82,2.25-56.64-7-74.58-22.73s-14.88-41.87,6-16.3,48.3,27.85,61.57,27.78C1337.11,290.87,1345.48,290.27,1347.86,294.05ZM1292.07,95.31c22.42,2.92,35-9.55,40.39-16.21a75.63,75.63,0,0,1,5.9-6.87c1.83,1.19,3.71,2.35,5.62,3.49a20.11,20.11,0,0,1-2.58,5.79c-8.2,12.56-27.17,24.59-43,25.34S1269.66,92.39,1292.07,95.31ZM1272,244.21c-3.06,0-5.55-6.47-5.55-14.45s2.49-14.45,5.55-14.45,5.56,6.47,5.56,14.45S1275.06,244.21,1272,244.21Zm-33.23,36.19c-2.09,2.66-9.38.4-16.29-5s-10.81-12-8.72-14.65,9.39-.39,16.29,5.05S1240.85,277.75,1238.76,280.4ZM1236,327.73c47,21.65,123.91,24.61,171.73,4.47,15.34-6.46,33.42-18,25.88-23.49-8.73-6.34-24.83-1.22-46.12,5.2-28.48,8.58-124,21.34-180.35-46.29-10.5-12.6-7.81-16.23,6.62-15s7.81-15,3.6-34.26-4.21-36.67,9-52.9c0,0-9,62.51,18.64,76.94,0,0,16.83-3,15.62-39.67,0,0,17.08,9.11,31.16-25.31,8.2-20,21.44-40.61,37.31-60.13-25,10.94-40.69,12.7-40.69,12.7s17.08-13.49-2.46-11.14c-33.7,4.07-44.37-19.57-21.2-26.84,12.41-3.89,26.84-11.49,26.6-15.69-.13-2.3-5.16-4.65-16.48-2.6-31.89,5.78-19.47-7.6-22.81-16.84s-23.35-1-23.35-1c2.3-2.57,4.32-5.4,4.51-7.58-5.89,5.24-11.76,10.6-17.53,16.23.89-.27,1.79-.52,2.72-.75,11.14-2.71,21-1.44,22.06,2.84s-7.15,9.95-18.29,12.66c-8.74,2.13-16.69,1.79-20.21-.52a223.15,223.15,0,0,0-27.65,37.64C1131.52,190.08,1143.05,285,1236,327.73Zm-36.51-101.67a6.88,6.88,0,1,1-6.88,6.87A6.88,6.88,0,0,1,1199.46,226.06Zm310.69,10.75a6.23,6.23,0,1,1,6.23,6.23A6.23,6.23,0,0,1,1510.15,236.81Zm-31,36c1.13-2.85,8.06-2.78,15.49.16s12.52,7.64,11.39,10.49-8.06,2.78-15.48-.16S1478,275.7,1479.15,272.85Z" style="mix-blend-mode:multiply;fill:url(#f8d7757a-66e1-433c-a568-86a3b1fbd978)"/><path d="M531.69,117.23C508.85,101,466.17,73.34,396.43,73.34c0,0-196.11-6.79-196.57,187.56-.05,21.24,5.36,42,15,62.17,31.84-7.56,56.48-6.71,56.48-6.71,51.07,0,87.61,14.83,112.5,29.14-8-7-15-13.34-20.48-18.48-29.45-27.65-99.19-102.19,10.22-140.66,0,0-1.2-4.21-13.22-5.41,0,0,34.86-14.71,76.23,3.77,32,14.29,20.68-15.62-7.1-15.8-19.32-.12-56.51,4.21-56.51-5.41s33.06-9,51.1-3,31.86,13.22,39.07,3.6-9.62-10.82-20.44-13.22-23.44-18.64,13.83-9,4.21-19.84-31.86-20.44c0,0,29.45-8.41,67.93,9s10.22-13.83-5.41-17.43c0,0,40.27,7.21,60.11,25.25C547.32,138.27,554.53,133.46,531.69,117.23Zm-91.09-9.57c-22.16-7.88-42.89-2.42-52.62.82-7.28,2.42-13.27,4.75-16,3.41s2.73-5.29,7.92-7.42c16.17-6.65,43.49-10.13,60.84-6.53S462.76,115.53,440.6,107.66Zm196.21,27c-2.45-3.88,6.39-7.4,13.71-8.12,22.81-2.25,56.64,7,74.58,22.73s14.87,41.87-6.05,16.3-48.3-27.85-61.56-27.78C647.56,137.86,639.19,138.46,636.81,134.68ZM692.6,333.42c-22.42-2.92-35,9.55-40.39,16.21a77,77,0,0,1-5.9,6.87c-1.83-1.19-3.71-2.35-5.62-3.5a20.06,20.06,0,0,1,2.58-5.78c8.21-12.56,27.17-24.59,43-25.34S715,336.34,692.6,333.42Zm20.08-148.91c3.06,0,5.55,6.48,5.55,14.46s-2.49,14.45-5.55,14.45S707.13,207,707.13,199,709.61,184.51,712.68,184.51Zm33.23-36.19c2.09-2.65,9.38-.39,16.29,5.05s10.81,12,8.72,14.66-9.38.39-16.29-5.05S743.82,151,745.91,148.32ZM748.7,101c-47-21.64-123.91-24.6-171.73-4.46-15.34,6.46-33.42,18-25.87,23.49,8.72,6.34,24.82,1.22,46.12-5.2,28.48-8.58,124-21.34,180.34,46.29,10.51,12.6,7.81,16.23-6.61,15s-7.82,15-3.61,34.26,4.21,36.67-9,52.9c0,0,9-62.52-18.63-76.94,0,0-16.84,3-15.63,39.67,0,0-17.08-9.11-31.16,25.31-8.2,20-21.44,40.61-37.31,60.13,25-10.94,40.7-12.7,40.7-12.7s-17.08,13.49,2.45,11.13c33.7-4.06,44.38,19.58,21.2,26.84-12.41,3.89-26.84,11.5-26.6,15.7.13,2.3,5.16,4.65,16.48,2.6,31.89-5.78,19.47,7.59,22.82,16.84s23.35,1,23.35,1c-2.3,2.57-4.33,5.39-4.51,7.58,5.88-5.24,11.75-10.6,17.52-16.23-.89.26-1.79.52-2.72.75-11.14,2.71-21,1.43-22-2.84s7.14-9.95,18.28-12.66c8.75-2.13,16.69-1.79,20.22.52a224.34,224.34,0,0,0,27.65-37.65C853.15,238.65,841.62,143.78,748.7,101Zm36.51,101.68a6.88,6.88,0,1,1,6.88-6.88A6.87,6.87,0,0,1,785.21,202.67ZM474.53,191.92a6.23,6.23,0,1,1-6.23-6.23A6.23,6.23,0,0,1,474.53,191.92Zm31-36c-1.13,2.85-8.06,2.77-15.48-.17s-12.52-7.63-11.4-10.48,8.07-2.78,15.49.16S506.65,153,505.52,155.88Z" style="mix-blend-mode:multiply;fill:url(#a1cc695f-896b-4bf7-8027-3c6c1b6e68ae)"/><g style="mix-blend-mode:multiply"><path d="M814.16,106.54c22.16,7.88,17.46-6.11.11-9.71s-44.67-.13-60.84,6.52c-5.19,2.14-10.75,6.05-7.92,7.43s8.75-1,16-3.42C771.27,104.12,792,98.66,814.16,106.54Z" style="fill:url(#b9c9c503-ee47-495f-9561-d5e9724feab7)"/><path d="M1158.77,187.8a6.88,6.88,0,1,0,6.88,6.88A6.88,6.88,0,0,0,1158.77,187.8Z" style="fill:url(#afe862eb-b024-4ed8-a8ed-9c8832420b3e)"/><path d="M1151.12,160a139.35,139.35,0,0,0-50.68-38.21c-6.4,5.4-12.83,10.49-19.19,15.23a78.17,78.17,0,0,1,17.4,11.16c17.94,15.69,14.88,41.87-6,16.3a74.12,74.12,0,0,0-23.17-19c-24.55,16.74-47.07,27.2-61.75,27.62-23.48.66-56.32-18.34-86-40.17.93,3.1-.8,4.26-.8,4.26-19.84-18-60.12-25.25-60.12-25.25,15.63,3.61,43.89,34.87,5.41,17.43s-67.93-9-67.93-9c36.07.6,69.14,30.05,31.87,20.44s-24.65,6.61-13.83,9,27.65,3.61,20.44,13.23-21,2.4-39.08-3.61A100.27,100.27,0,0,0,771,155.05q6.84,6.69,14.15,13.25c6.53-.25,12.84-.53,17.91-.49,27.79.17,39.07,30.08,7.11,15.8a107.59,107.59,0,0,0-13-4.82c17.17,14.5,35.79,28.44,55.2,41.76,48.65,33.39,104,58.77,147.84,121.53,28.27-27.91,53.4-60.5,66.23-91.86,14.08-34.42,31.15-25.3,31.15-25.3-1.2-36.67,15.63-39.68,15.63-39.68,18.34,9.57,20.55,40.29,20,59.89,3.27-3.67,6.6-7.23,10-10.75.66-8-.38-16.38-2.28-25.09-4.21-19.24-10.82-35.47,3.6-34.27S1161.62,172.59,1151.12,160ZM841.85,197a6.23,6.23,0,1,1,6.23-6.23A6.23,6.23,0,0,1,841.85,197Zm37.22-42.27c-1.13,2.85-8.06,2.78-15.48-.16S851.07,147,852.2,144.11s8.06-2.78,15.48.16S880.2,151.91,879.07,154.76Zm207.16,57.54c-3.06,0-5.55-6.47-5.55-14.45s2.49-14.45,5.55-14.45,5.56,6.47,5.56,14.45S1089.3,212.3,1086.23,212.3Zm58.24-45.39c-2.09,2.65-9.38.39-16.28-5s-10.81-12-8.72-14.65,9.38-.39,16.29,5S1146.57,164.26,1144.47,166.91Z" style="fill:url(#b2fc7616-35a9-40cf-9596-5a4c4c79d12c)"/></g></g></g></g></svg>