<svg id="e3ab5ab2-ce9a-41e4-8c15-0d4b7acf215a" data-name="Layer 1" xmlns="http://www.w3.org/2000/svg" viewBox="0 0 111.69 27.8"><title>youDigItLogo</title><path d="M25.87.16h5C35.19.16,36,2.8,36,6.86c0,4.88-1.15,7.08-5.24,7.08H25.87ZM29,11.89h1.36c2.14,0,2.57-1.21,2.57-5,0-3.12-.28-4.72-2.63-4.72H29Z" style="fill:#4D4D4F"/><path d="M37.52,2.12h2.95V4.65H37.52Zm0,3.94h2.95v7.88H37.52Z" style="fill:#4D4D4F"/><path d="M51,2.41V12.93c0,2.27-.7,3.84-2.56,4.23-1.66.35-2.82-.14-3.26-.74a2.25,2.25,0,0,1-.06-2.06,1.44,1.44,0,0,0,1.43,1.2c1.2,0,1.63-.9,1.63-2.07v-1.1h-.05a3.08,3.08,0,0,1-2.46,1.42c-2.35,0-3.52-1.61-3.52-5.83,0-2.7.4-5.87,3.61-5.87A2.56,2.56,0,0,1,48.08,3.7h.05C48.67,1.88,51,2.41,51,2.41Zm-4.43,9.13c1.24,0,1.61-1.35,1.61-3.3,0-2.81-.37-3.86-1.54-3.86s-1.54,1-1.54,4.16C45.05,10.12,45.28,11.54,46.52,11.54Z" style="fill:#4D4D4F"/><path d="M52.87,13.94V0H56V13.94Z" style="fill:#4D4D4F"/><path d="M63.33,2.41v2H61.62v6.23c0,.9.19,1.48,1.05,1.48a.85.85,0,0,0,.66-.26,1.92,1.92,0,0,1-1.92,2.18c-2,0-2.74-.7-2.74-3V4.43h-1.5v-2Z" style="fill:#4D4D4F"/><path d="M64.86.06h5.59c2.61,0,4.34,1.1,4.34,3.42a3,3,0,0,1-2.4,3.13v0c1.14.15,2.83.6,2.83,3.44,0,1.63-.79,3.85-5,3.85H64.86Zm3.6,5.54h1C70.68,5.6,71.2,5,71.2,4c0-.72-.43-1.49-1.74-1.49h-1Zm0,5.93h1.09a1.7,1.7,0,0,0,2-1.81,1.73,1.73,0,0,0-1.89-2H68.46Z" style="fill:#4D4D4F"/><path d="M76.47,5.9a3.51,3.51,0,0,1,1.3-3.1A5.43,5.43,0,0,1,81,2.05c2.85,0,4.11,1,4.11,3.43v5.95a4.71,4.71,0,0,0,.41,2.51S82.39,15.4,82,12.61h0a3,3,0,0,1-2.72,1.63c-2,0-3.08-1-3.08-3.54a3.28,3.28,0,0,1,1.41-2.95,15.27,15.27,0,0,1,3.1-1c1-.27,1.24-.45,1.24-1.32,0-.71-.32-1.16-1.09-1.16-1,0-1.24.58-1.26,1.58Zm4,5.94c.73,0,1.39-.43,1.39-1.59,0-1,0-1.56,0-2-1.09.58-1.56.6-1.88.85a1.45,1.45,0,0,0-.53,1.29C79.49,11.28,79.85,11.84,80.49,11.84Z" style="fill:#4D4D4F"/><path d="M87,13.94V0h3.47V3.61h0a2.65,2.65,0,0,1,2.59-1.56c2.84,0,3.36,2.59,3.36,6.19,0,4.33-1.24,6-3.58,6a2.44,2.44,0,0,1-2.5-1.72h0S89.93,15,87,13.94Zm4.64-2.23c1.31,0,1.35-1.78,1.35-3.64,0-2.1-.06-3.49-1.32-3.49s-1.27,1.58-1.27,3.64C90.36,10.47,90.58,11.71,91.6,11.71Z" style="fill:#4D4D4F"/><path d="M96.84,2.35h3.59l1.41,8.12h0l1.35-8.12h3.47l-2.66,10c-.56,2-1,3.55-2.21,4.54a3.55,3.55,0,0,1-2.87.49A2.66,2.66,0,0,1,97,14.46a2.5,2.5,0,0,0,2,1c.62,0,1.35-.63,1-1.79Z" style="fill:#4D4D4F"/><path d="M107.91,3.61V0h3.74V3.61a12.84,12.84,0,0,1-1.86,6.45A12.65,12.65,0,0,1,107.91,3.61Z" style="fill:#4D4D4F"/><circle cx="109.78" cy="12.92" r="1.91" style="fill:#4D4D4F"/><path d="M3.15,1.92,4.77,6.07,7.14.12h2.3L5.75,8.52v5.4H3.55V8.52L0,.12S2.44-.21,3.15,1.92Z" style="fill:#4D4D4F"/><path d="M12,3.25c3,0,3.88,2.24,3.88,5.47s-1,5.47-3.88,5.47S8.11,11.94,8.11,8.72,9,3.25,12,3.25Zm0,9.39c1.53,0,1.8-1.28,1.8-3.92,0-2.3-.27-3.92-1.8-3.92s-1.77,1.62-1.77,3.92C10.19,11.36,10.46,12.64,12,12.64Z" style="fill:#4D4D4F"/><path d="M22.28,12.7a3.28,3.28,0,0,1-2.72,1.49C18,14.19,17,13.47,17,10.78V3.52h2.08V11c0,1.16.52,1.54,1.41,1.54a1.63,1.63,0,0,0,1.7-1.74V3.52h2.08v10.4A1.5,1.5,0,0,1,22.28,12.7Z" style="fill:#4D4D4F"/><path d="M2.69,18.91H4v.82H4a1.58,1.58,0,0,1,1.5-1c1.54,0,2.16,1.31,2.16,3.61,0,2.81-1.15,3.44-2.07,3.44a1.58,1.58,0,0,1-1.52-1H4v3H2.69Zm2.42,5.8c.77,0,1.12-.57,1.12-2.42,0-1.52-.2-2.48-1.14-2.48S4,20.76,4,22.19C4,23.79,4.16,24.71,5.11,24.71Z" style="fill:#4D4D4F"/><path d="M8.69,18.91H10V20h0a1.65,1.65,0,0,1,1.55-1.22,1,1,0,0,1,.33.05v1.37a2.24,2.24,0,0,0-.56-.08c-.61,0-1.35.28-1.35,1.52v4H8.69Z" style="fill:#4D4D4F"/><path d="M13.7,22.44v.38c0,.9.11,2,1.12,2s1.07-1.09,1.07-1.49h1.27a2.21,2.21,0,0,1-2.35,2.42c-1.1,0-2.46-.33-2.46-3.43,0-1.75.38-3.62,2.48-3.62,1.87,0,2.37,1.12,2.37,3v.71Zm2.16-.92v-.37c0-.84-.28-1.49-1-1.49s-1.12.85-1.12,1.72v.14Z" style="fill:#4D4D4F"/><path d="M21.2,20.87v-.18c0-.53-.18-1-.88-1-.54,0-1,.25-1,.87s.24.74.95,1l.86.29a1.82,1.82,0,0,1,1.45,1.93c0,1.44-1,2.05-2.4,2.05-1.7,0-2.21-.79-2.21-2.08v-.25h1.2v.21c0,.77.27,1.19,1.05,1.19s1.09-.37,1.09-1a1,1,0,0,0-.73-1l-1.1-.39a1.78,1.78,0,0,1-1.43-1.93c0-1.26.91-1.84,2.29-1.84,1.71,0,2.09,1,2.09,1.83v.3Z" style="fill:#4D4D4F"/><path d="M24.78,22.44v.38c0,.9.11,2,1.12,2S27,23.77,27,23.37h1.27a2.22,2.22,0,0,1-2.36,2.42c-1.1,0-2.45-.33-2.45-3.43,0-1.75.37-3.62,2.48-3.62,1.87,0,2.36,1.12,2.36,3v.71Zm2.16-.92v-.37c0-.84-.28-1.49-1-1.49s-1.12.85-1.12,1.72v.14Z" style="fill:#4D4D4F"/><path d="M29.39,18.91h1.28v.79h0a1.92,1.92,0,0,1,1.72-1c1,0,1.67.46,1.67,1.82v5.05H32.75V21c0-.87-.26-1.21-.94-1.21s-1.07.44-1.07,1.31v4.49H29.39Z" style="fill:#4D4D4F"/><path d="M34.79,18.91h.92V17h1.35v1.9h1.1v1h-1.1v4c0,.52.15.71.61.71a3.11,3.11,0,0,0,.49,0v1a4.21,4.21,0,0,1-1.09.12c-.91,0-1.36-.25-1.36-1.62V19.91h-.92Z" style="fill:#4D4D4F"/><path d="M41.75,20.87v-.18c0-.53-.19-1-.89-1-.53,0-1,.25-1,.87s.24.74,1,1l.86.29a1.82,1.82,0,0,1,1.46,1.93c0,1.44-1.05,2.05-2.41,2.05-1.69,0-2.2-.79-2.2-2.08v-.25h1.19v.21c0,.77.28,1.19,1,1.19s1.1-.37,1.1-1a1,1,0,0,0-.74-1l-1.09-.39a1.79,1.79,0,0,1-1.44-1.93c0-1.26.91-1.84,2.3-1.84,1.7,0,2.09,1,2.09,1.83v.3Z" style="fill:#4D4D4F"/></svg>
